# Blender v3.1.2 OBJ File: ''
# www.blender.org
mtllib plane1x1.mtl
o 平面_平面.001
v -1.000000 0.000000 -1.000000
v -1.000000 0.000000 1.000000
v 1.000000 0.000000 -1.000000
v 1.000000 0.000000 1.000000
v -1.000000 0.000000 0.000000
v 1.000000 0.000000 0.000000
v 0.000000 0.000000 -1.000000
v 0.000000 0.000000 1.000000
v 0.000000 0.000000 0.000000
v -0.500000 0.000000 -1.000000
v -0.500000 0.000000 1.000000
v -0.500000 0.000000 0.000000
v 0.500000 0.000000 1.000000
v 0.500000 0.000000 0.000000
v 0.500000 0.000000 -1.000000
v 1.000000 0.000000 -0.500000
v -1.000000 0.000000 -0.500000
v 0.000000 0.000000 -0.500000
v -0.500000 0.000000 -0.500000
v 0.500000 0.000000 -0.500000
v -1.000000 0.000000 0.500000
v 1.000000 0.000000 0.500000
v 0.000000 0.000000 0.500000
v -0.500000 0.000000 0.500000
v 0.500000 0.000000 0.500000
v 0.750000 0.000000 1.000000
v 0.750000 0.000000 0.000000
v 0.750000 0.000000 -1.000000
v 0.750000 0.000000 -0.500000
v 0.750000 0.000000 0.500000
v 0.250000 0.000000 -1.000000
v 0.250000 0.000000 1.000000
v 0.250000 0.000000 0.000000
v 0.250000 0.000000 -0.500000
v 0.250000 0.000000 0.500000
v -0.250000 0.000000 1.000000
v -0.250000 0.000000 0.000000
v -0.250000 0.000000 -1.000000
v -0.250000 0.000000 -0.500000
v -0.250000 0.000000 0.500000
v -0.750000 0.000000 -1.000000
v -0.750000 0.000000 1.000000
v -0.750000 0.000000 0.000000
v -0.750000 0.000000 -0.500000
v -0.750000 0.000000 0.500000
v 1.000000 0.000000 -0.750000
v 0.000000 0.000000 -0.750000
v -0.500000 0.000000 -0.750000
v 0.500000 0.000000 -0.750000
v -1.000000 0.000000 -0.750000
v 0.750000 0.000000 -0.750000
v 0.250000 0.000000 -0.750000
v -0.250000 0.000000 -0.750000
v -0.750000 0.000000 -0.750000
v -1.000000 0.000000 -0.250000
v 1.000000 0.000000 -0.250000
v 0.000000 0.000000 -0.250000
v -0.500000 0.000000 -0.250000
v 0.500000 0.000000 -0.250000
v 0.750000 0.000000 -0.250000
v 0.250000 0.000000 -0.250000
v -0.250000 0.000000 -0.250000
v -0.750000 0.000000 -0.250000
v 1.000000 0.000000 0.250000
v 0.000000 0.000000 0.250000
v -0.500000 0.000000 0.250000
v 0.500000 0.000000 0.250000
v -1.000000 0.000000 0.250000
v 0.750000 0.000000 0.250000
v 0.250000 0.000000 0.250000
v -0.250000 0.000000 0.250000
v -0.750000 0.000000 0.250000
v -1.000000 0.000000 0.750000
v 1.000000 0.000000 0.750000
v 0.000000 0.000000 0.750000
v -0.500000 0.000000 0.750000
v 0.500000 0.000000 0.750000
v 0.750000 0.000000 0.750000
v 0.250000 0.000000 0.750000
v -0.250000 0.000000 0.750000
v -0.750000 0.000000 0.750000
vt 0.000000 0.125000
vt 0.125000 0.000000
vt 0.125000 0.125000
vt 0.500000 0.125000
vt 0.625000 0.000000
vt 0.625000 0.125000
vt 0.500000 0.625000
vt 0.625000 0.500000
vt 0.625000 0.625000
vt 0.000000 0.625000
vt 0.125000 0.500000
vt 0.125000 0.625000
vt 0.000000 0.875000
vt 0.125000 0.750000
vt 0.125000 0.875000
vt 0.500000 0.875000
vt 0.625000 0.750000
vt 0.625000 0.875000
vt 0.500000 0.375000
vt 0.625000 0.250000
vt 0.625000 0.375000
vt 0.000000 0.375000
vt 0.125000 0.250000
vt 0.125000 0.375000
vt 0.750000 0.375000
vt 0.875000 0.250000
vt 0.875000 0.375000
vt 0.750000 0.875000
vt 0.875000 0.750000
vt 0.875000 0.875000
vt 0.750000 0.625000
vt 0.875000 0.500000
vt 0.875000 0.625000
vt 0.750000 0.125000
vt 0.875000 0.000000
vt 0.875000 0.125000
vt 0.250000 0.375000
vt 0.375000 0.250000
vt 0.375000 0.375000
vt 0.250000 0.875000
vt 0.375000 0.750000
vt 0.375000 0.875000
vt 0.250000 0.625000
vt 0.375000 0.500000
vt 0.375000 0.625000
vt 0.250000 0.125000
vt 0.375000 0.000000
vt 0.375000 0.125000
vt 0.250000 0.250000
vt 0.750000 0.250000
vt 0.500000 0.250000
vt 0.000000 0.250000
vt 0.250000 0.500000
vt 0.750000 0.500000
vt 0.000000 0.500000
vt 0.500000 0.500000
vt 0.250000 0.750000
vt 0.750000 0.750000
vt 0.000000 0.750000
vt 0.500000 0.750000
vt 0.250000 1.000000
vt 0.375000 1.000000
vt 0.750000 1.000000
vt 0.875000 1.000000
vt 0.500000 1.000000
vt 0.625000 1.000000
vt 0.000000 1.000000
vt 0.125000 1.000000
vt 1.000000 0.875000
vt 1.000000 1.000000
vt 1.000000 0.625000
vt 1.000000 0.750000
vt 1.000000 0.375000
vt 1.000000 0.500000
vt 1.000000 0.125000
vt 1.000000 0.250000
vt 1.000000 0.000000
vt 0.750000 0.000000
vt 0.500000 0.000000
vt 0.250000 0.000000
vt 0.000000 0.000000
vn 0.0000 1.0000 0.0000
usemtl マテリアル.003
s off
f 26/1/1 74/2/1 78/3/1
f 27/4/1 56/5/1 60/6/1
f 37/7/1 57/8/1 62/9/1
f 36/10/1 75/11/1 80/12/1
f 42/13/1 76/14/1 81/15/1
f 43/16/1 58/17/1 63/18/1
f 33/19/1 59/20/1 61/21/1
f 32/22/1 77/23/1 79/24/1
f 34/25/1 49/26/1 52/27/1
f 44/28/1 48/29/1 54/30/1
f 39/31/1 47/32/1 53/33/1
f 29/34/1 46/35/1 51/36/1
f 35/37/1 67/38/1 70/39/1
f 45/40/1 66/41/1 72/42/1
f 40/43/1 65/44/1 71/45/1
f 30/46/1 64/47/1 69/48/1
f 25/49/1 69/48/1 67/38/1
f 20/50/1 51/36/1 49/26/1
f 14/51/1 60/6/1 59/20/1
f 13/52/1 78/3/1 77/23/1
f 23/53/1 70/39/1 65/44/1
f 18/54/1 52/27/1 47/32/1
f 8/55/1 79/24/1 75/11/1
f 9/56/1 61/21/1 57/8/1
f 24/57/1 71/45/1 66/41/1
f 19/58/1 53/33/1 48/29/1
f 11/59/1 80/12/1 76/14/1
f 12/60/1 62/9/1 58/17/1
f 21/61/1 72/42/1 68/62/1
f 17/63/1 54/30/1 50/64/1
f 5/65/1 63/18/1 55/66/1
f 2/67/1 81/15/1 73/68/1
f 50/64/1 41/69/1 1/70/1
f 48/29/1 38/71/1 10/72/1
f 47/32/1 31/73/1 7/74/1
f 49/26/1 28/75/1 15/76/1
f 51/36/1 3/77/1 28/75/1
f 53/33/1 7/74/1 38/71/1
f 54/30/1 10/72/1 41/69/1
f 52/27/1 15/76/1 31/73/1
f 55/66/1 44/28/1 17/63/1
f 58/17/1 39/31/1 19/58/1
f 57/8/1 34/25/1 18/54/1
f 59/20/1 29/34/1 20/50/1
f 61/21/1 20/50/1 34/25/1
f 63/18/1 19/58/1 44/28/1
f 62/9/1 18/54/1 39/31/1
f 60/6/1 16/78/1 29/34/1
f 68/62/1 43/16/1 5/65/1
f 66/41/1 37/7/1 12/60/1
f 65/44/1 33/19/1 9/56/1
f 67/38/1 27/4/1 14/51/1
f 69/48/1 6/79/1 27/4/1
f 71/45/1 9/56/1 37/7/1
f 72/42/1 12/60/1 43/16/1
f 70/39/1 14/51/1 33/19/1
f 73/68/1 45/40/1 21/61/1
f 76/14/1 40/43/1 24/57/1
f 75/11/1 35/37/1 23/53/1
f 77/23/1 30/46/1 25/49/1
f 79/24/1 25/49/1 35/37/1
f 81/15/1 24/57/1 45/40/1
f 80/12/1 23/53/1 40/43/1
f 78/3/1 22/80/1 30/46/1
f 26/1/1 4/81/1 74/2/1
f 27/4/1 6/79/1 56/5/1
f 37/7/1 9/56/1 57/8/1
f 36/10/1 8/55/1 75/11/1
f 42/13/1 11/59/1 76/14/1
f 43/16/1 12/60/1 58/17/1
f 33/19/1 14/51/1 59/20/1
f 32/22/1 13/52/1 77/23/1
f 34/25/1 20/50/1 49/26/1
f 44/28/1 19/58/1 48/29/1
f 39/31/1 18/54/1 47/32/1
f 29/34/1 16/78/1 46/35/1
f 35/37/1 25/49/1 67/38/1
f 45/40/1 24/57/1 66/41/1
f 40/43/1 23/53/1 65/44/1
f 30/46/1 22/80/1 64/47/1
f 25/49/1 30/46/1 69/48/1
f 20/50/1 29/34/1 51/36/1
f 14/51/1 27/4/1 60/6/1
f 13/52/1 26/1/1 78/3/1
f 23/53/1 35/37/1 70/39/1
f 18/54/1 34/25/1 52/27/1
f 8/55/1 32/22/1 79/24/1
f 9/56/1 33/19/1 61/21/1
f 24/57/1 40/43/1 71/45/1
f 19/58/1 39/31/1 53/33/1
f 11/59/1 36/10/1 80/12/1
f 12/60/1 37/7/1 62/9/1
f 21/61/1 45/40/1 72/42/1
f 17/63/1 44/28/1 54/30/1
f 5/65/1 43/16/1 63/18/1
f 2/67/1 42/13/1 81/15/1
f 50/64/1 54/30/1 41/69/1
f 48/29/1 53/33/1 38/71/1
f 47/32/1 52/27/1 31/73/1
f 49/26/1 51/36/1 28/75/1
f 51/36/1 46/35/1 3/77/1
f 53/33/1 47/32/1 7/74/1
f 54/30/1 48/29/1 10/72/1
f 52/27/1 49/26/1 15/76/1
f 55/66/1 63/18/1 44/28/1
f 58/17/1 62/9/1 39/31/1
f 57/8/1 61/21/1 34/25/1
f 59/20/1 60/6/1 29/34/1
f 61/21/1 59/20/1 20/50/1
f 63/18/1 58/17/1 19/58/1
f 62/9/1 57/8/1 18/54/1
f 60/6/1 56/5/1 16/78/1
f 68/62/1 72/42/1 43/16/1
f 66/41/1 71/45/1 37/7/1
f 65/44/1 70/39/1 33/19/1
f 67/38/1 69/48/1 27/4/1
f 69/48/1 64/47/1 6/79/1
f 71/45/1 65/44/1 9/56/1
f 72/42/1 66/41/1 12/60/1
f 70/39/1 67/38/1 14/51/1
f 73/68/1 81/15/1 45/40/1
f 76/14/1 80/12/1 40/43/1
f 75/11/1 79/24/1 35/37/1
f 77/23/1 78/3/1 30/46/1
f 79/24/1 77/23/1 25/49/1
f 81/15/1 76/14/1 24/57/1
f 80/12/1 75/11/1 23/53/1
f 78/3/1 74/2/1 22/80/1
