# Blender 3.5.0
# www.blender.org
mtllib wall01.mtl
o がれき壁１
v -0.768720 -0.138545 3.962423
v -0.768720 1.454333 3.962423
v -0.768720 -0.138545 -3.962423
v -0.768720 1.454333 -3.962423
v 0.768720 -0.138545 3.962423
v 0.768720 1.454333 3.962423
v 0.768720 -0.138545 -3.962423
v 0.768720 1.454333 -3.962423
v -0.686483 0.954043 3.823523
v -0.686483 6.482058 3.823523
v -0.686483 0.954043 -3.823523
v -0.686483 5.930717 -1.918394
v 0.686483 0.954043 3.823523
v 0.686483 6.482058 3.823523
v 0.686483 0.954043 -3.823523
v 0.686483 5.930717 -1.918394
v 0.686483 4.930991 3.479730
v 0.686483 1.909047 3.486238
v 0.686483 1.867065 -0.140482
v 0.686483 4.979380 -0.142894
v 0.686483 5.700370 0.460628
v 0.686483 5.670696 2.918716
v 0.686483 4.920465 3.114016
v 0.686483 5.375213 2.774857
v 0.686483 5.384338 1.888378
v 0.686483 2.189797 1.895873
v 0.686483 2.197690 3.119362
v 0.686483 5.385852 1.488608
v 0.686483 5.394812 0.588888
v 0.686483 4.935433 0.217465
v 0.686483 2.186388 0.221347
v 0.686483 2.195017 1.508798
v 0.686483 6.950500 2.626640
v -0.686483 6.949857 2.638081
v 0.686483 7.038674 0.466512
v -0.686483 7.040352 0.436704
v -0.686483 3.442380 -3.054658
v 0.686483 3.442380 -3.054658
v -0.686483 4.785377 -2.551714
v 0.686483 4.785377 -2.551714
v -0.686483 2.203618 -3.695466
v 0.686483 2.203618 -3.695466
v -0.686483 2.828468 -3.105971
v 0.686483 2.828468 -3.105971
v -0.686483 3.879208 -2.593875
v 0.686483 3.879208 -2.593875
v 0.805375 4.930991 3.479730
v 0.805375 1.909047 3.486238
v 0.805375 1.867065 -0.140482
v 0.805375 4.979380 -0.142894
v 0.805375 5.700370 0.460628
v 0.805375 5.670696 2.918716
v 0.805375 4.920465 3.114016
v 0.805375 5.375213 2.774857
v 0.805375 5.384338 1.888378
v 0.805375 2.189797 1.895873
v 0.805375 2.197690 3.119362
v 0.805375 5.385852 1.488608
v 0.805375 5.394812 0.588888
v 0.805375 4.935433 0.217465
v 0.805375 2.186388 0.221347
v 0.805375 2.195017 1.508798
v -0.743541 4.930991 3.479730
v -0.743541 1.909047 3.486238
v -0.743541 1.867065 -0.140482
v -0.743541 4.979380 -0.142894
v -0.743541 5.700370 0.460628
v -0.743541 5.670696 2.918716
v -0.743541 4.920465 3.114016
v -0.743541 5.375213 2.774857
v -0.743541 5.384338 1.888378
v -0.743541 2.189797 1.895873
v -0.743541 2.197690 3.119362
v -0.743541 5.385852 1.488608
v -0.743541 5.394812 0.588888
v -0.743541 4.935433 0.217465
v -0.743541 2.186388 0.221347
v -0.743541 2.195017 1.508798
v -0.907364 4.930991 3.479730
v -0.907364 1.909047 3.486238
v -0.907364 1.867065 -0.140482
v -0.907364 4.979380 -0.142894
v -0.907364 5.700370 0.460628
v -0.907364 5.670696 2.918716
v -0.907364 4.920465 3.114016
v -0.907364 5.375213 2.774857
v -0.907364 5.384338 1.888378
v -0.907364 2.189797 1.895873
v -0.907364 2.197690 3.119362
v -0.907364 5.394812 0.588888
v -0.907364 4.935433 0.217465
v -0.907364 2.186388 0.221347
v -0.907364 2.195017 1.508798
v -0.907364 5.385852 1.488608
vn -1.0000 -0.0000 -0.0000
vn -0.0000 -0.0000 -1.0000
vn 1.0000 -0.0000 -0.0000
vn -0.0000 -0.0000 1.0000
vn -0.0000 -1.0000 -0.0000
vn -0.0000 1.0000 -0.0000
vn -0.0000 0.4839 -0.8751
vn 0.0103 0.9069 -0.4213
vn -0.0000 0.6043 0.7968
vn -0.0000 -0.0020 -1.0000
vn -0.0000 -0.0063 -1.0000
vn -0.0000 0.0833 -0.9965
vn 0.0026 0.9312 0.3645
vn -0.0001 0.9992 0.0408
vn -0.0000 0.0465 -0.9989
vn -0.0000 0.1019 -0.9948
vn -0.0000 0.6862 -0.7274
vn -0.0000 0.7257 -0.6880
vn -0.0000 0.0022 1.0000
vn -0.0000 -1.0000 -0.0100
vn -0.0000 -0.5979 -0.8016
vn -0.0000 -0.9999 0.0116
vn -0.0000 -0.6287 0.7776
vn -0.0000 -0.9999 -0.0103
vn -0.0000 -0.0008 -1.0000
vn -0.0000 0.0014 1.0000
vn -0.0000 0.0023 1.0000
vn -0.0000 0.6419 -0.7668
vn -0.0000 1.0000 -0.0067
vn -0.0000 1.0000 -0.0065
vn -0.0000 0.9999 0.0121
vn -0.0000 -1.0000 -0.0090
vn -0.0000 1.0000 0.0038
vn -0.9989 0.0422 -0.0199
vn -0.9990 0.0447 0.0005
vn -0.9989 0.0284 0.0375
vn -0.9858 0.0004 0.1678
vn -0.9982 -0.0594 0.0007
vn -0.9995 0.0145 -0.0298
vn -0.0000 0.9046 -0.4262
vn -0.0000 0.9302 0.3671
vn 0.0003 0.9992 0.0411
vn -0.9996 0.0186 -0.0222
vn -0.9991 0.0426 0.0018
vn -0.9986 0.0488 0.0192
vn -0.9865 -0.0000 0.1637
vn -0.9981 -0.0624 -0.0000
vn -0.9999 -0.0000 -0.0155
vn -0.9996 0.0137 -0.0248
vn -0.9997 0.0011 -0.0238
vn -0.9996 0.0102 -0.0267
vt 0.304375 0.996038
vt 0.003906 0.846079
vt 0.454593 0.996092
vt 0.304372 0.858468
vt 0.003906 0.983629
vt 0.154144 0.858468
vt 0.947990 0.307606
vt 0.454593 0.858524
vt 0.441945 0.996038
vt 0.441942 0.858468
vt 0.810485 0.307607
vt 0.154144 0.996028
vt 0.141496 0.846079
vt 0.742382 0.858524
vt 0.592165 0.996092
vt 0.604812 0.858524
vt 0.141496 0.983629
vt 0.291724 0.858468
vt 0.742382 0.996094
vt 0.947990 0.169971
vt 0.592165 0.858524
vt 0.291724 0.996028
vt 0.810485 0.169971
vt 0.604812 0.996094
vt 0.432785 0.003906
vt 0.546612 0.541617
vt 0.138155 0.006806
vt 0.432784 0.483327
vt 0.128210 0.489638
vt 0.546612 0.674363
vt 0.150932 0.536354
vt 0.003906 0.004038
vt 0.150929 0.102187
vt 0.028399 0.439403
vt 0.556186 0.003906
vt 0.423758 0.541617
vt 0.420099 0.528913
vt 0.410267 0.051584
vt 0.556185 0.483327
vt 0.287380 0.531647
vt 0.423758 0.674363
vt 0.274732 0.536353
vt 0.274729 0.102186
vt 0.311593 0.101243
vt 0.407059 0.185637
vt 0.655089 0.068066
vt 0.412547 0.446571
vt 0.655089 0.329224
vt 0.810485 0.146674
vt 0.349677 0.451493
vt 0.873480 0.146674
vt 0.711610 0.679896
vt 0.344100 0.182754
vt 0.711609 0.411057
vt 0.353292 0.120283
vt 0.711610 0.348322
vt 0.014550 0.790703
vt 0.396006 0.121966
vt 0.014550 0.833431
vt 0.655089 0.003906
vt 0.877775 0.380922
vt 0.877775 0.341873
vt 0.019308 0.466433
vt 0.003906 0.466433
vt 0.569655 0.703183
vt 0.293795 0.703183
vt 0.359927 0.312501
vt 0.381164 0.312501
vt 0.877775 0.616260
vt 0.582303 0.703187
vt 0.097759 0.277690
vt 0.082128 0.277690
vt 0.003907 0.767402
vt 0.043468 0.767402
vt 0.281147 0.767402
vt 0.101744 0.111691
vt 0.079396 0.111691
vt 0.857744 0.703187
vt 0.556186 0.524456
vt 0.755792 0.858550
vt 0.388661 0.011563
vt 0.432785 0.524396
vt 0.755067 0.982454
vt 0.106557 0.530067
vt 0.274732 0.004034
vt 0.351014 0.004721
vt 0.793736 0.858711
vt 0.150932 0.003912
vt 0.793736 0.982617
vt 0.067748 0.537174
vt 0.150930 0.319410
vt 0.012927 0.221654
vt 0.296298 0.316511
vt 0.274730 0.319409
vt 0.150930 0.202255
vt 0.019341 0.339137
vt 0.302638 0.200367
vt 0.274729 0.202254
vt 0.150931 0.427607
vt 0.003906 0.113225
vt 0.287380 0.423704
vt 0.274730 0.427606
vt 0.150931 0.372828
vt 0.013131 0.168015
vt 0.296499 0.369539
vt 0.274731 0.372827
vt 0.150931 0.281078
vt 0.020231 0.259975
vt 0.303518 0.278627
vt 0.274730 0.281077
vt 0.568908 0.268888
vt 0.644441 0.068066
vt 0.568835 0.007896
vt 0.644441 0.329224
vt 0.810485 0.157323
vt 0.631793 0.004280
vt 0.873480 0.157323
vt 0.722260 0.679896
vt 0.631793 0.273077
vt 0.722259 0.411057
vt 0.621307 0.335344
vt 0.722260 0.348322
vt 0.003906 0.790703
vt 0.644441 0.003906
vt 0.578636 0.332775
vt 0.003906 0.833431
vt 0.575256 0.267980
vt 0.888432 0.380922
vt 0.581138 0.307256
vt 0.888432 0.341873
vt 0.019308 0.455790
vt 0.596526 0.308046
vt 0.003906 0.455790
vt 0.569655 0.692543
vt 0.596439 0.032147
vt 0.293795 0.692543
vt 0.359927 0.323145
vt 0.888432 0.616260
vt 0.575200 0.032826
vt 0.381164 0.323145
vt 0.582303 0.692543
vt 0.603466 0.308178
vt 0.097759 0.267046
vt 0.619084 0.308954
vt 0.082128 0.267046
vt 0.003907 0.778055
vt 0.625538 0.269281
vt 0.043468 0.778055
vt 0.625508 0.031857
vt 0.281147 0.778055
vt 0.101744 0.101046
vt 0.857744 0.692543
vt 0.603158 0.032599
vt 0.079396 0.101046
vt 0.783165 0.068066
vt 0.124990 0.354015
vt 0.130541 0.090073
vt 0.783165 0.329224
vt 0.810485 0.018581
vt 0.873480 0.018581
vt 0.583510 0.679896
vt 0.066947 0.085093
vt 0.583509 0.411057
vt 0.061305 0.356930
vt 0.583510 0.348322
vt 0.142567 0.790703
vt 0.070603 0.420121
vt 0.142567 0.833431
vt 0.783165 0.003906
vt 0.113810 0.418419
vt 0.749593 0.380921
vt 0.749592 0.341872
vt 0.019308 0.594453
vt 0.031955 0.535247
vt 0.003906 0.391731
vt 0.003906 0.594453
vt 0.569655 0.831159
vt 0.293795 0.831159
vt 0.359927 0.184466
vt 0.381164 0.184465
vt 0.749592 0.616260
vt 0.582303 0.831210
vt 0.097759 0.405705
vt 0.010847 0.391731
vt 0.031955 0.573218
vt 0.082128 0.405705
vt 0.003906 0.639269
vt 0.043468 0.639270
vt 0.281147 0.639269
vt 0.101744 0.239731
vt 0.079396 0.239731
vt 0.857743 0.831210
vt 0.339865 0.549057
vt 0.797837 0.068066
vt 0.810485 0.003906
vt 0.797837 0.329224
vt 0.078873 0.548985
vt 0.568834 0.679896
vt 0.873480 0.003906
vt 0.075255 0.611943
vt 0.344053 0.611943
vt 0.568834 0.411057
vt 0.406320 0.601456
vt 0.568834 0.348322
vt 0.157233 0.790703
vt 0.403752 0.558786
vt 0.157233 0.833431
vt 0.797837 0.003906
vt 0.338957 0.555406
vt 0.734908 0.380921
vt 0.378232 0.561287
vt 0.046619 0.535247
vt 0.734908 0.341872
vt 0.569655 0.845820
vt 0.379022 0.576676
vt 0.003906 0.406390
vt 0.359927 0.169798
vt 0.293795 0.845820
vt 0.103124 0.576589
vt 0.734908 0.616260
vt 0.381164 0.169798
vt 0.103803 0.555350
vt 0.379930 0.599234
vt 0.003906 0.624591
vt 0.046619 0.573218
vt 0.340256 0.605688
vt 0.043468 0.624591
vt 0.102833 0.605658
vt 0.281147 0.624591
vt 0.101744 0.254399
vt 0.857743 0.845876
vt 0.103575 0.583308
vt 0.079396 0.254399
vt 0.582303 0.845876
vt 0.379154 0.583616
vt 0.010847 0.406390
s 0
usemtl マテリアル.001
f 2/4/1 3/9/1 1/1/1
f 4/11/2 7/20/2 3/7/2
f 8/24/3 5/14/3 7/19/3
f 6/17/4 1/2/4 5/13/4
f 7/21/5 1/3/5 3/8/5
f 4/12/6 6/18/6 8/22/6
f 12/33/7 40/98/7 39/95/7
f 42/101/3 44/105/3 19/50/3
f 14/39/4 9/25/4 13/35/4
f 15/41/5 9/26/5 11/30/5
f 16/43/8 36/88/8 35/85/8
f 22/58/3 35/86/3 14/38/3
f 17/46/9 52/124/9 22/60/9
f 23/61/10 57/138/10 27/69/10
f 28/70/11 62/152/11 32/78/11
f 37/91/12 44/106/12 43/103/12
f 34/82/13 14/39/13 33/79/13
f 35/87/14 34/83/14 33/80/14
f 39/95/15 46/110/15 45/107/15
f 41/99/16 15/42/16 11/31/16
f 43/103/17 42/102/17 41/99/17
f 45/107/18 38/94/18 37/91/18
f 52/125/3 47/111/3 54/129/3
f 56/135/3 48/113/3 61/149/3
f 59/144/3 50/119/3 51/121/3
f 18/48/19 47/112/19 17/46/19
f 29/72/20 58/143/20 28/71/20
f 24/62/21 53/128/21 23/61/21
f 19/51/22 48/115/22 18/49/22
f 30/74/23 59/146/23 29/73/23
f 25/64/24 54/131/24 24/63/24
f 20/54/25 49/118/25 19/52/25
f 31/75/26 60/148/26 30/74/26
f 26/66/27 55/134/27 25/65/27
f 21/56/28 50/120/28 20/54/28
f 32/77/29 61/151/29 31/76/29
f 27/68/30 56/137/30 26/67/30
f 22/59/31 51/123/31 21/57/31
f 23/61/21 70/172/21 24/62/21
f 18/49/22 65/160/22 19/51/22
f 29/73/23 76/188/23 30/74/23
f 24/63/24 71/176/24 25/64/24
f 19/52/25 66/163/25 20/54/25
f 30/74/26 77/189/26 31/75/26
f 25/65/27 72/178/27 26/66/27
f 20/54/28 67/165/28 21/56/28
f 31/76/29 78/191/29 32/77/29
f 26/67/30 73/180/30 27/68/30
f 21/57/31 68/168/31 22/59/31
f 32/78/11 74/182/11 28/70/11
f 27/69/10 69/171/10 23/61/10
f 22/60/9 63/155/9 17/46/9
f 17/46/19 64/158/19 18/48/19
f 28/71/20 75/186/20 29/72/20
f 73/181/10 85/210/10 69/171/10
f 65/161/25 82/202/25 66/163/25
f 72/179/30 89/221/30 73/180/30
f 64/159/22 81/199/22 65/160/22
f 71/177/27 88/218/27 72/178/27
f 78/192/11 94/234/11 74/182/11
f 63/155/19 80/196/19 64/158/19
f 82/201/1 90/223/1 83/203/1
f 90/223/1 84/206/1 83/203/1
f 87/215/1 93/232/1 88/219/1
f 80/197/1 88/219/1 92/228/1
f 79/193/1 89/222/1 80/197/1
f 86/211/1 79/193/1 84/206/1
f 92/228/1 82/201/1 81/200/1
f 66/163/28 83/204/28 67/165/28
f 67/166/31 84/207/31 68/168/31
f 75/187/23 91/227/23 76/188/23
f 68/169/9 79/194/9 63/155/9
f 70/174/32 90/225/32 75/185/32
f 76/188/26 92/229/26 77/189/26
f 69/171/21 86/213/21 70/172/21
f 74/184/33 87/216/33 71/175/33
f 77/190/29 93/233/29 78/191/29
f 12/34/34 67/167/34 36/90/34
f 34/84/35 67/167/35 68/170/35
f 10/29/36 68/170/36 63/156/36
f 9/27/37 63/156/37 64/157/37
f 65/162/38 9/27/38 64/157/38
f 43/104/39 66/164/39 45/108/39
f 2/4/1 4/10/1 3/9/1
f 4/11/2 8/23/2 7/20/2
f 8/24/3 6/16/3 5/14/3
f 6/17/4 2/5/4 1/2/4
f 7/21/5 5/15/5 1/3/5
f 4/12/6 2/6/6 6/18/6
f 12/33/7 16/43/7 40/98/7
f 13/37/3 15/40/3 42/101/3
f 44/105/3 38/93/3 46/109/3
f 19/50/3 18/47/3 13/37/3
f 16/44/3 20/53/3 19/50/3
f 46/109/3 40/97/3 16/44/3
f 46/109/3 16/44/3 19/50/3
f 19/50/3 13/37/3 42/101/3
f 44/105/3 46/109/3 19/50/3
f 14/39/4 10/28/4 9/25/4
f 15/41/5 13/36/5 9/26/5
f 16/43/40 12/33/40 36/88/40
f 14/38/3 13/37/3 18/47/3
f 14/38/3 18/47/3 17/45/3
f 35/86/3 33/81/3 14/38/3
f 20/53/3 16/44/3 35/86/3
f 21/55/3 20/53/3 35/86/3
f 14/38/3 17/45/3 22/58/3
f 22/58/3 21/55/3 35/86/3
f 17/46/9 47/112/9 52/124/9
f 23/61/10 53/128/10 57/138/10
f 28/70/11 58/141/11 62/152/11
f 37/91/12 38/94/12 44/106/12
f 34/82/41 10/28/41 14/39/41
f 35/87/42 36/89/42 34/83/42
f 39/95/15 40/98/15 46/110/15
f 41/99/16 42/102/16 15/42/16
f 43/103/17 44/106/17 42/102/17
f 45/107/18 46/110/18 38/94/18
f 55/132/3 51/121/3 52/125/3
f 47/111/3 48/113/3 57/139/3
f 47/111/3 57/139/3 53/127/3
f 54/129/3 55/132/3 52/125/3
f 47/111/3 53/127/3 54/129/3
f 56/135/3 57/139/3 48/113/3
f 48/113/3 49/116/3 61/149/3
f 61/149/3 62/153/3 56/135/3
f 60/147/3 61/149/3 49/116/3
f 55/132/3 56/135/3 62/153/3
f 55/132/3 62/153/3 58/142/3
f 60/147/3 49/116/3 50/119/3
f 55/132/3 58/142/3 59/144/3
f 59/144/3 60/147/3 50/119/3
f 51/121/3 55/132/3 59/144/3
f 18/48/19 48/114/19 47/112/19
f 29/72/20 59/145/20 58/143/20
f 24/62/21 54/130/21 53/128/21
f 19/51/22 49/117/22 48/115/22
f 30/74/23 60/148/23 59/146/23
f 25/64/24 55/133/24 54/131/24
f 20/54/25 50/120/25 49/118/25
f 31/75/26 61/150/26 60/148/26
f 26/66/27 56/136/27 55/134/27
f 21/56/28 51/122/28 50/120/28
f 32/77/29 62/154/29 61/151/29
f 27/68/30 57/140/30 56/137/30
f 22/59/31 52/126/31 51/123/31
f 23/61/21 69/171/21 70/172/21
f 18/49/22 64/159/22 65/160/22
f 29/73/23 75/187/23 76/188/23
f 24/63/24 70/173/24 71/176/24
f 19/52/25 65/161/25 66/163/25
f 30/74/26 76/188/26 77/189/26
f 25/65/27 71/177/27 72/178/27
f 20/54/28 66/163/28 67/165/28
f 31/76/29 77/190/29 78/191/29
f 26/67/30 72/179/30 73/180/30
f 21/57/31 67/166/31 68/168/31
f 32/78/11 78/192/11 74/182/11
f 27/69/10 73/181/10 69/171/10
f 22/60/9 68/169/9 63/155/9
f 17/46/19 63/155/19 64/158/19
f 28/71/20 74/183/20 75/186/20
f 73/181/10 89/220/10 85/210/10
f 65/161/25 81/198/25 82/202/25
f 72/179/30 88/217/30 89/221/30
f 64/159/22 80/195/22 81/199/22
f 71/177/27 87/214/27 88/218/27
f 78/192/11 93/231/11 94/234/11
f 63/155/19 79/194/19 80/196/19
f 82/201/1 91/226/1 90/223/1
f 90/223/1 86/211/1 84/206/1
f 87/215/1 94/235/1 93/232/1
f 92/228/1 81/200/1 80/197/1
f 80/197/1 89/222/1 88/219/1
f 88/219/1 93/232/1 92/228/1
f 79/193/1 85/209/1 89/222/1
f 86/211/1 85/209/1 79/193/1
f 92/228/1 91/226/1 82/201/1
f 66/163/28 82/202/28 83/204/28
f 67/166/31 83/205/31 84/207/31
f 75/187/23 90/224/23 91/227/23
f 68/169/9 84/208/9 79/194/9
f 70/174/32 86/212/32 90/225/32
f 76/188/26 91/227/26 92/229/26
f 69/171/21 85/210/21 86/213/21
f 74/184/33 94/236/33 87/216/33
f 77/190/29 92/230/29 93/233/29
f 12/34/43 66/164/43 67/167/43
f 34/84/44 36/90/44 67/167/44
f 10/29/45 34/84/45 68/170/45
f 9/27/46 10/29/46 63/156/46
f 65/162/47 11/32/47 9/27/47
f 43/104/1 41/100/1 11/32/1
f 11/32/48 65/162/48 66/164/48
f 66/164/49 12/34/49 39/96/49
f 45/108/1 37/92/1 43/104/1
f 66/164/50 39/96/50 45/108/50
f 43/104/51 11/32/51 66/164/51
