# Blender 3.5.0
# www.blender.org
mtllib flashlightRange.mtl
o 円錐
v 0.000000 -0.711450 1.838342
v 0.000000 0.208550 -1.003282
v 0.195090 -0.692235 1.838342
v 0.015607 0.210087 -1.003282
v 0.382683 -0.635330 1.838342
v 0.030615 0.214639 -1.003282
v 0.555570 -0.542920 1.838342
v 0.044446 0.222032 -1.003282
v 0.707107 -0.418557 1.838342
v 0.056569 0.231981 -1.003282
v 0.831470 -0.267020 1.838342
v 0.066518 0.244104 -1.003282
v 0.923880 -0.094134 1.838342
v 0.073910 0.257935 -1.003282
v 0.980785 0.093459 1.838342
v 0.078463 0.272942 -1.003282
v 1.000000 0.288550 1.838342
v 0.080000 0.288550 -1.003282
v 0.980785 0.483640 1.838342
v 0.078463 0.304157 -1.003282
v 0.923880 0.671233 1.838342
v 0.073910 0.319164 -1.003282
v 0.831470 0.844120 1.838342
v 0.066518 0.332995 -1.003282
v 0.707107 0.995656 1.838342
v 0.056569 0.345118 -1.003282
v 0.555570 1.120019 1.838342
v 0.044446 0.355067 -1.003282
v 0.382683 1.212429 1.838342
v 0.030615 0.362460 -1.003282
v 0.195090 1.269335 1.838342
v 0.015607 0.367012 -1.003282
v 0.000000 1.288550 1.838342
v 0.000000 0.368550 -1.003282
v -0.195090 1.269335 1.838342
v -0.015607 0.367012 -1.003282
v -0.382683 1.212429 1.838342
v -0.030615 0.362460 -1.003282
v -0.555570 1.120019 1.838342
v -0.044446 0.355067 -1.003282
v -0.707107 0.995656 1.838342
v -0.056569 0.345118 -1.003282
v -0.831470 0.844120 1.838342
v -0.066518 0.332995 -1.003282
v -0.923880 0.671233 1.838342
v -0.073910 0.319164 -1.003282
v -0.980785 0.483640 1.838342
v -0.078463 0.304157 -1.003282
v -1.000000 0.288550 1.838342
v -0.080000 0.288550 -1.003282
v -0.980785 0.093459 1.838342
v -0.078463 0.272942 -1.003282
v -0.923880 -0.094134 1.838342
v -0.073910 0.257935 -1.003282
v -0.831470 -0.267020 1.838342
v -0.066518 0.244104 -1.003282
v -0.707107 -0.418557 1.838342
v -0.056569 0.231981 -1.003282
v -0.555570 -0.542920 1.838342
v -0.044446 0.222032 -1.003282
v -0.382683 -0.635330 1.838342
v -0.030615 0.214639 -1.003282
v -0.195090 -0.692235 1.838342
v -0.015607 0.210087 -1.003282
v 0.000000 -0.049988 -0.301769
v 0.066045 -0.043483 -0.301769
v 0.129553 -0.024218 -0.301769
v 0.188081 0.007066 -0.301769
v 0.239382 0.049167 -0.301769
v 0.281484 0.100468 -0.301769
v 0.312768 0.158997 -0.301769
v 0.332033 0.222504 -0.301769
v 0.338538 0.288550 -0.301769
v 0.332033 0.354595 -0.301769
v 0.312768 0.418102 -0.301769
v 0.281484 0.476631 -0.301769
v 0.239382 0.527932 -0.301769
v 0.188081 0.570033 -0.301769
v 0.129553 0.601318 -0.301769
v 0.066045 0.620582 -0.301769
v 0.000000 0.627087 -0.301769
v -0.066045 0.620582 -0.301769
v -0.129553 0.601318 -0.301769
v -0.188081 0.570033 -0.301769
v -0.239382 0.527932 -0.301769
v -0.281484 0.476631 -0.301769
v -0.312768 0.418102 -0.301769
v -0.332033 0.354595 -0.301769
v -0.338538 0.288550 -0.301769
v -0.332033 0.222504 -0.301769
v -0.312768 0.158997 -0.301769
v -0.281484 0.100468 -0.301769
v -0.239382 0.049167 -0.301769
v -0.188081 0.007066 -0.301769
v -0.129553 -0.024218 -0.301769
v -0.066045 -0.043483 -0.301769
v 0.108686 -0.257852 0.393148
v 0.213196 -0.226150 0.393148
v 0.309512 -0.174668 0.393148
v 0.393934 -0.105384 0.393148
v 0.463217 -0.020962 0.393148
v 0.514699 0.075354 0.393148
v 0.546402 0.179864 0.393148
v 0.557107 0.288550 0.393148
v 0.546402 0.397236 0.393148
v 0.514699 0.501745 0.393148
v 0.463217 0.598062 0.393148
v 0.393934 0.682484 0.393148
v 0.309512 0.751767 0.393148
v 0.213196 0.803249 0.393148
v 0.108686 0.834952 0.393148
v -0.000000 0.845656 0.393148
v -0.108686 0.834952 0.393148
v -0.213196 0.803249 0.393148
v -0.309512 0.751767 0.393148
v -0.393934 0.682484 0.393148
v -0.463217 0.598062 0.393148
v -0.514699 0.501745 0.393148
v -0.546402 0.397236 0.393148
v -0.557107 0.288550 0.393148
v -0.546402 0.179864 0.393148
v -0.514699 0.075354 0.393148
v -0.463217 -0.020962 0.393148
v -0.393934 -0.105384 0.393148
v -0.309512 -0.174668 0.393148
v -0.213196 -0.226150 0.393148
v -0.108686 -0.257852 0.393148
v -0.000000 -0.268557 0.393148
v 0.151629 -0.473738 1.115745
v 0.297430 -0.429510 1.115745
v 0.431802 -0.357687 1.115745
v 0.549579 -0.261029 1.115745
v 0.646237 -0.143252 1.115745
v 0.718060 -0.008880 1.115745
v 0.762288 0.136921 1.115745
v 0.777222 0.288550 1.115745
v 0.762288 0.440178 1.115745
v 0.718060 0.585980 1.115745
v 0.646237 0.720351 1.115745
v 0.549579 0.838129 1.115745
v 0.431802 0.934786 1.115745
v 0.297430 1.006610 1.115745
v 0.151629 1.050838 1.115745
v -0.000000 1.065772 1.115745
v -0.151629 1.050838 1.115745
v -0.297430 1.006610 1.115745
v -0.431802 0.934786 1.115745
v -0.549579 0.838129 1.115745
v -0.646237 0.720351 1.115745
v -0.718060 0.585980 1.115745
v -0.762288 0.440178 1.115745
v -0.777222 0.288550 1.115745
v -0.762288 0.136921 1.115745
v -0.718060 -0.008880 1.115745
v -0.646237 -0.143252 1.115745
v -0.549579 -0.261029 1.115745
v -0.431802 -0.357687 1.115745
v -0.297430 -0.429510 1.115745
v -0.151629 -0.473738 1.115745
v -0.000000 -0.488673 1.115745
vn 0.0920 -0.9343 -0.3443
vn 0.2725 -0.8984 -0.3443
vn 0.4426 -0.8280 -0.3443
vn 0.5956 -0.7257 -0.3443
vn 0.7257 -0.5956 -0.3443
vn 0.8280 -0.4426 -0.3443
vn 0.8984 -0.2725 -0.3443
vn 0.9343 -0.0920 -0.3443
vn 0.9343 0.0920 -0.3443
vn 0.8984 0.2725 -0.3443
vn 0.8280 0.4426 -0.3443
vn 0.7257 0.5956 -0.3443
vn 0.5956 0.7257 -0.3443
vn 0.4426 0.8280 -0.3443
vn 0.2725 0.8984 -0.3443
vn 0.0920 0.9343 -0.3443
vn -0.0920 0.9343 -0.3443
vn -0.2725 0.8984 -0.3443
vn -0.4426 0.8280 -0.3443
vn -0.5956 0.7257 -0.3443
vn -0.7257 0.5956 -0.3443
vn -0.8280 0.4426 -0.3443
vn -0.8984 0.2725 -0.3443
vn -0.9343 0.0920 -0.3443
vn -0.9343 -0.0920 -0.3443
vn -0.8984 -0.2725 -0.3443
vn -0.8280 -0.4426 -0.3443
vn -0.7257 -0.5956 -0.3443
vn -0.5956 -0.7257 -0.3443
vn -0.4426 -0.8280 -0.3443
vn -0.0000 -0.0000 -1.0000
vn -0.2725 -0.8984 -0.3443
vn -0.0920 -0.9343 -0.3443
vn -0.0000 -0.0000 1.0000
vn -0.0935 -0.9497 -0.2987
vn -0.2770 -0.9132 -0.2987
vn -0.4499 -0.8417 -0.2987
vn -0.6054 -0.7377 -0.2987
vn -0.7377 -0.6054 -0.2987
vn -0.8417 -0.4499 -0.2987
vn -0.9132 -0.2770 -0.2987
vn -0.9497 -0.0935 -0.2987
vn -0.9497 0.0935 -0.2987
vn -0.9132 0.2770 -0.2987
vn -0.8417 0.4499 -0.2987
vn -0.7377 0.6054 -0.2987
vn -0.6054 0.7377 -0.2987
vn -0.4499 0.8417 -0.2987
vn -0.2770 0.9132 -0.2987
vn -0.0935 0.9497 -0.2987
vn 0.0935 0.9497 -0.2987
vn 0.2770 0.9132 -0.2987
vn 0.4499 0.8417 -0.2987
vn 0.6054 0.7377 -0.2987
vn 0.7377 0.6054 -0.2987
vn 0.8417 0.4499 -0.2987
vn 0.9132 0.2770 -0.2987
vn 0.9497 0.0935 -0.2987
vn 0.9497 -0.0935 -0.2987
vn 0.9132 -0.2770 -0.2987
vn 0.8417 -0.4499 -0.2987
vn 0.7377 -0.6054 -0.2987
vn 0.6054 -0.7377 -0.2987
vn 0.4499 -0.8417 -0.2987
vn 0.2770 -0.9132 -0.2987
vn 0.0935 -0.9497 -0.2987
vn 0.0938 -0.9524 -0.2901
vn 0.2778 -0.9158 -0.2901
vn 0.4511 -0.8440 -0.2901
vn 0.6071 -0.7398 -0.2901
vn 0.7398 -0.6071 -0.2901
vn 0.8440 -0.4511 -0.2901
vn 0.9158 -0.2778 -0.2901
vn 0.9524 -0.0938 -0.2901
vn 0.9524 0.0938 -0.2901
vn 0.9158 0.2778 -0.2901
vn 0.8440 0.4511 -0.2901
vn 0.7398 0.6071 -0.2901
vn 0.6071 0.7398 -0.2901
vn 0.4511 0.8440 -0.2901
vn 0.2778 0.9158 -0.2901
vn 0.0938 0.9524 -0.2901
vn -0.0938 0.9524 -0.2901
vn -0.2778 0.9158 -0.2901
vn -0.4511 0.8440 -0.2901
vn -0.6071 0.7398 -0.2901
vn -0.7398 0.6071 -0.2901
vn -0.8440 0.4511 -0.2901
vn -0.9158 0.2778 -0.2901
vn -0.9524 0.0938 -0.2901
vn -0.9524 -0.0938 -0.2901
vn -0.9158 -0.2778 -0.2901
vn -0.8440 -0.4511 -0.2901
vn -0.7398 -0.6071 -0.2901
vn -0.6071 -0.7398 -0.2901
vn -0.4511 -0.8440 -0.2901
vn -0.2778 -0.9158 -0.2901
vn -0.0938 -0.9524 -0.2901
vn -0.0937 -0.9514 -0.2933
vn -0.2775 -0.9148 -0.2933
vn -0.4507 -0.8431 -0.2933
vn -0.6065 -0.7390 -0.2933
vn -0.7390 -0.6065 -0.2933
vn -0.8431 -0.4507 -0.2933
vn -0.9148 -0.2775 -0.2933
vn -0.9514 -0.0937 -0.2933
vn -0.9514 0.0937 -0.2933
vn -0.9148 0.2775 -0.2933
vn -0.8431 0.4507 -0.2933
vn -0.7390 0.6065 -0.2933
vn -0.6065 0.7390 -0.2933
vn -0.4507 0.8431 -0.2933
vn -0.2775 0.9148 -0.2933
vn -0.0937 0.9514 -0.2933
vn 0.0937 0.9514 -0.2933
vn 0.2775 0.9148 -0.2933
vn 0.4507 0.8431 -0.2933
vn 0.6065 0.7390 -0.2933
vn 0.7390 0.6065 -0.2933
vn 0.8431 0.4507 -0.2933
vn 0.9148 0.2775 -0.2933
vn 0.9514 0.0937 -0.2933
vn 0.9514 -0.0937 -0.2933
vn 0.9148 -0.2775 -0.2933
vn 0.8431 -0.4507 -0.2933
vn 0.7390 -0.6065 -0.2933
vn 0.6065 -0.7390 -0.2933
vn 0.4507 -0.8431 -0.2933
vn 0.2775 -0.9148 -0.2933
vn 0.0937 -0.9514 -0.2933
vt 0.927505 0.954073
vt 0.466881 0.615346
vt 0.013391 0.003035
vt 0.601198 0.009415
vt 0.895857 0.975220
vt 0.506909 0.622959
vt 0.604400 0.010024
vt 0.010577 0.004201
vt 0.860691 0.989786
vt 0.546657 0.627855
vt 0.607580 0.010416
vt 0.008046 0.005893
vt 0.823359 0.997212
vt 0.584597 0.629847
vt 0.610615 0.010575
vt 0.005892 0.008046
vt 0.873445 0.003401
vt 0.785296 0.997212
vt 0.619271 0.628858
vt 0.613389 0.010496
vt 0.867752 0.601949
vt 0.004201 0.010578
vt 0.747964 0.989786
vt 0.839882 0.002444
vt 0.865067 0.601873
vt 0.003035 0.013391
vt 0.712798 0.975220
vt 0.803158 0.004372
vt 0.862129 0.602027
vt 0.002441 0.016377
vt 0.681150 0.954073
vt 0.764684 0.009112
vt 0.859051 0.602406
vt 0.002441 0.019422
vt 0.654235 0.927159
vt 0.725939 0.016480
vt 0.855951 0.602996
vt 0.003035 0.022409
vt 0.633088 0.895510
vt 0.688411 0.026195
vt 0.852949 0.603773
vt 0.004201 0.025222
vt 0.618522 0.860344
vt 0.653543 0.037883
vt 0.850160 0.604708
vt 0.005893 0.027754
vt 0.051094 0.547682
vt 0.611096 0.823012
vt 0.622674 0.051094
vt 0.847690 0.605765
vt 0.605765 0.772698
vt 0.008046 0.029907
vt 0.611096 0.784949
vt 0.037883 0.578550
vt 0.604708 0.775167
vt 0.010578 0.031599
vt 0.618522 0.747617
vt 0.026195 0.613418
vt 0.603773 0.777957
vt 0.013391 0.032764
vt 0.633088 0.712452
vt 0.016480 0.650946
vt 0.602996 0.780959
vt 0.016377 0.033358
vt 0.009112 0.689692
vt 0.654235 0.680803
vt 0.602406 0.784059
vt 0.019422 0.033358
vt 0.681150 0.653889
vt 0.004372 0.728166
vt 0.602027 0.787137
vt 0.022409 0.032764
vt 0.712798 0.632742
vt 0.002444 0.764890
vt 0.601873 0.790074
vt 0.025222 0.031599
vt 0.309114 0.003433
vt 0.747964 0.618176
vt 0.003401 0.798453
vt 0.601949 0.792760
vt 0.303232 0.621795
vt 0.027754 0.029907
vt 0.785296 0.610750
vt 0.274440 0.002444
vt 0.300458 0.621716
vt 0.029907 0.027754
vt 0.823359 0.610750
vt 0.236500 0.004436
vt 0.297423 0.621875
vt 0.031599 0.025222
vt 0.860691 0.618176
vt 0.196752 0.009332
vt 0.294243 0.622267
vt 0.032764 0.022409
vt 0.895857 0.632742
vt 0.156724 0.016945
vt 0.291040 0.622876
vt 0.033358 0.019422
vt 0.927505 0.653889
vt 0.117954 0.026981
vt 0.287939 0.623679
vt 0.033358 0.016377
vt 0.954420 0.680803
vt 0.081931 0.039056
vt 0.285057 0.624645
vt 0.032764 0.013391
vt 0.975567 0.712452
vt 0.050041 0.052704
vt 0.282506 0.625737
vt 0.031599 0.010578
vt 0.990133 0.747617
vt 0.023508 0.067402
vt 0.280383 0.626912
vt 0.029907 0.008046
vt 0.313510 0.549707
vt 0.003353 0.082584
vt 0.997559 0.784949
vt 0.278771 0.628127
vt 0.588928 0.004164
vt 0.027754 0.005893
vt 0.997559 0.823013
vt 0.333666 0.564890
vt 0.590540 0.005379
vt 0.025222 0.004201
vt 0.990133 0.860344
vt 0.360198 0.579587
vt 0.592663 0.006555
vt 0.022409 0.003035
vt 0.975567 0.895510
vt 0.392089 0.593236
vt 0.019422 0.002441
vt 0.595214 0.007647
vt 0.428111 0.605310
vt 0.954420 0.927159
vt 0.016377 0.002441
vt 0.598096 0.008612
vt 0.567010 0.160983
vt 0.580562 0.163560
vt 0.594018 0.165218
vt 0.606862 0.165892
vt 0.872796 0.451857
vt 0.618600 0.165557
vt 0.861434 0.451533
vt 0.849001 0.452186
vt 0.835976 0.453790
vt 0.822860 0.456285
vt 0.810155 0.459573
vt 0.798351 0.463530
vt 0.468002 0.712908
vt 0.787901 0.468002
vt 0.463530 0.723359
vt 0.459573 0.735163
vt 0.456285 0.747867
vt 0.453790 0.760984
vt 0.452186 0.774009
vt 0.451533 0.786442
vt 0.308443 0.466734
vt 0.451857 0.797804
vt 0.296705 0.466399
vt 0.283861 0.467073
vt 0.270404 0.468731
vt 0.256853 0.471308
vt 0.243728 0.474706
vt 0.231533 0.478793
vt 0.220737 0.483414
vt 0.211755 0.488390
vt 0.515089 0.138762
vt 0.204932 0.493529
vt 0.521912 0.143902
vt 0.530894 0.148877
vt 0.541690 0.153498
vt 0.553885 0.157585
vt 0.556673 0.312999
vt 0.578817 0.315727
vt 0.599954 0.316837
vt 0.619271 0.316286
vt 0.873445 0.305958
vt 0.854747 0.305425
vt 0.834288 0.306499
vt 0.812854 0.309139
vt 0.791268 0.313244
vt 0.770361 0.318657
vt 0.750936 0.325168
vt 0.733739 0.332528
vt 0.332528 0.658747
vt 0.325168 0.675944
vt 0.318657 0.695369
vt 0.313244 0.716276
vt 0.309139 0.737862
vt 0.306499 0.759296
vt 0.305425 0.779755
vt 0.305958 0.798453
vt 0.309114 0.316005
vt 0.289797 0.315454
vt 0.268660 0.316564
vt 0.246516 0.319292
vt 0.224216 0.323533
vt 0.202617 0.329124
vt 0.182549 0.335851
vt 0.164783 0.343454
vt 0.150001 0.351643
vt 0.138772 0.360101
vt 0.448930 0.272190
vt 0.460158 0.280649
vt 0.474940 0.288837
vt 0.492706 0.296440
vt 0.512774 0.303167
vt 0.534374 0.308758
vt 0.531782 0.467885
vt 0.562674 0.471691
vt 0.592162 0.473239
vt 0.873291 0.154778
vt 0.619112 0.472470
vt 0.847205 0.154034
vt 0.818662 0.155533
vt 0.788759 0.159217
vt 0.758646 0.164944
vt 0.729478 0.172494
vt 0.702378 0.181578
vt 0.191846 0.603394
vt 0.678386 0.191846
vt 0.181578 0.627386
vt 0.172494 0.654486
vt 0.164944 0.683653
vt 0.159217 0.713767
vt 0.155533 0.743670
vt 0.154034 0.772213
vt 0.308954 0.159821
vt 0.154778 0.798299
vt 0.282005 0.159052
vt 0.252517 0.160601
vt 0.221624 0.164406
vt 0.190514 0.170323
vt 0.160381 0.178123
vt 0.132383 0.187508
vt 0.107597 0.198116
vt 0.086976 0.209539
vt 0.381468 0.410952
vt 0.071311 0.221339
vt 0.397133 0.422752
vt 0.417755 0.434176
vt 0.442540 0.444783
vt 0.470538 0.454168
vt 0.500671 0.461968
s 0
usemtl マテリアル.001
f 2/4/1 66/138/1 65/137/1
f 4/7/2 67/139/2 66/138/2
f 6/11/3 68/140/3 67/139/3
f 68/140/4 10/20/4 69/142/4
f 10/21/5 70/143/5 69/141/5
f 12/25/6 71/144/6 70/143/6
f 14/29/7 72/145/7 71/144/7
f 72/145/8 18/37/8 73/146/8
f 18/37/9 74/147/9 73/146/9
f 20/41/10 75/148/10 74/147/10
f 22/45/11 76/150/11 75/148/11
f 24/51/12 77/151/12 76/149/12
f 26/55/13 78/152/13 77/151/13
f 28/59/14 79/153/14 78/152/14
f 30/63/15 80/154/15 79/153/15
f 32/67/16 81/155/16 80/154/16
f 34/71/17 82/156/17 81/155/17
f 36/75/18 83/158/18 82/156/18
f 38/81/19 84/159/19 83/157/19
f 40/85/20 85/160/20 84/159/20
f 85/160/21 44/93/21 86/161/21
f 86/161/22 46/97/22 87/162/22
f 46/97/23 88/163/23 87/162/23
f 48/101/24 89/164/24 88/163/24
f 50/105/25 90/165/25 89/164/25
f 52/109/26 91/166/26 90/165/26
f 54/113/27 92/168/27 91/166/27
f 56/119/28 93/169/28 92/167/28
f 93/169/29 60/127/29 94/170/29
f 60/127/30 95/171/30 94/170/30
f 38/82/31 22/46/31 6/12/31
f 62/132/32 96/172/32 95/171/32
f 64/136/33 65/137/33 96/172/33
f 31/66/34 47/99/34 63/134/34
f 96/172/35 128/208/35 127/207/35
f 95/171/36 127/207/36 126/206/36
f 94/170/37 126/206/37 125/205/37
f 93/169/38 125/205/38 124/204/38
f 123/203/39 93/169/39 124/204/39
f 91/166/40 123/202/40 122/201/40
f 90/165/41 122/201/41 121/200/41
f 89/164/42 121/200/42 120/199/42
f 88/163/43 120/199/43 119/198/43
f 87/162/44 119/198/44 118/197/44
f 86/161/45 118/197/45 117/196/45
f 85/160/46 117/196/46 116/195/46
f 84/159/47 116/195/47 115/194/47
f 83/157/48 115/194/48 114/193/48
f 82/156/49 114/192/49 113/191/49
f 81/155/50 113/191/50 112/190/50
f 111/189/51 81/155/51 112/190/51
f 79/153/52 111/189/52 110/188/52
f 78/152/53 110/188/53 109/187/53
f 77/151/54 109/187/54 108/186/54
f 107/185/55 77/151/55 108/186/55
f 75/148/56 107/184/56 106/183/56
f 74/147/57 106/183/57 105/182/57
f 73/146/58 105/182/58 104/181/58
f 72/145/59 104/181/59 103/180/59
f 71/144/60 103/180/60 102/179/60
f 70/143/61 102/179/61 101/178/61
f 69/141/62 101/178/62 100/177/62
f 68/140/63 100/176/63 99/175/63
f 98/174/64 68/140/64 99/175/64
f 66/138/65 98/174/65 97/173/65
f 65/137/66 97/173/66 128/208/66
f 128/208/67 129/209/67 160/244/67
f 97/173/68 130/210/68 129/209/68
f 98/174/69 131/211/69 130/210/69
f 99/175/70 132/213/70 131/211/70
f 100/177/71 133/214/71 132/212/71
f 101/178/72 134/215/72 133/214/72
f 134/215/73 103/180/73 135/216/73
f 103/180/74 136/217/74 135/216/74
f 104/181/75 137/218/75 136/217/75
f 105/182/76 138/219/76 137/218/76
f 106/183/77 139/221/77 138/219/77
f 107/185/78 140/222/78 139/220/78
f 108/186/79 141/223/79 140/222/79
f 109/187/80 142/224/80 141/223/80
f 142/224/81 111/189/81 143/225/81
f 111/189/82 144/226/82 143/225/82
f 144/226/83 113/191/83 145/227/83
f 113/191/84 146/229/84 145/227/84
f 114/193/85 147/230/85 146/228/85
f 115/194/86 148/231/86 147/230/86
f 116/195/87 149/232/87 148/231/87
f 117/196/88 150/233/88 149/232/88
f 118/197/89 151/234/89 150/233/89
f 119/198/90 152/235/90 151/234/90
f 120/199/91 153/236/91 152/235/91
f 121/200/92 154/237/92 153/236/92
f 122/201/93 155/239/93 154/237/93
f 123/203/94 156/240/94 155/238/94
f 124/204/95 157/241/95 156/240/95
f 125/205/96 158/242/96 157/241/96
f 126/206/97 159/243/97 158/242/97
f 127/207/98 160/244/98 159/243/98
f 159/243/99 1/2/99 63/133/99
f 61/130/100 159/243/100 63/133/100
f 157/241/101 61/130/101 59/126/101
f 156/240/102 59/126/102 57/122/102
f 155/238/103 57/122/103 55/115/103
f 53/112/104 155/239/104 55/116/104
f 153/236/105 53/112/105 51/108/105
f 152/235/106 51/108/106 49/104/106
f 151/234/107 49/104/107 47/100/107
f 150/233/108 47/100/108 45/96/108
f 149/232/109 45/96/109 43/92/109
f 148/231/110 43/92/110 41/88/110
f 147/230/111 41/88/111 39/84/111
f 146/228/112 39/84/112 37/77/112
f 145/227/113 37/79/113 35/74/113
f 144/226/114 35/74/114 33/70/114
f 143/225/115 33/70/115 31/65/115
f 29/62/116 143/225/116 31/65/116
f 141/223/117 29/62/117 27/58/117
f 140/222/118 27/58/118 25/54/118
f 139/220/119 25/54/119 23/47/119
f 138/219/120 23/49/120 21/44/120
f 137/218/121 21/44/121 19/40/121
f 136/217/122 19/40/122 17/36/122
f 135/216/123 17/36/123 15/32/123
f 134/215/124 15/32/124 13/28/124
f 133/214/125 13/28/125 11/24/125
f 132/212/126 11/24/126 9/17/126
f 131/211/127 9/19/127 7/14/127
f 130/210/128 7/14/128 5/10/128
f 129/209/129 5/10/129 3/6/129
f 160/244/130 3/6/130 1/2/130
f 2/4/1 4/7/1 66/138/1
f 4/7/2 6/11/2 67/139/2
f 6/11/3 8/15/3 68/140/3
f 68/140/4 8/15/4 10/20/4
f 10/21/5 12/25/5 70/143/5
f 12/25/6 14/29/6 71/144/6
f 14/29/7 16/33/7 72/145/7
f 72/145/8 16/33/8 18/37/8
f 18/37/9 20/41/9 74/147/9
f 20/41/10 22/45/10 75/148/10
f 22/45/11 24/50/11 76/150/11
f 24/51/12 26/55/12 77/151/12
f 26/55/13 28/59/13 78/152/13
f 28/59/14 30/63/14 79/153/14
f 30/63/15 32/67/15 80/154/15
f 32/67/16 34/71/16 81/155/16
f 34/71/17 36/75/17 82/156/17
f 36/75/18 38/80/18 83/158/18
f 38/81/19 40/85/19 84/159/19
f 40/85/20 42/89/20 85/160/20
f 85/160/21 42/89/21 44/93/21
f 86/161/22 44/93/22 46/97/22
f 46/97/23 48/101/23 88/163/23
f 48/101/24 50/105/24 89/164/24
f 50/105/25 52/109/25 90/165/25
f 52/109/26 54/113/26 91/166/26
f 54/113/27 56/118/27 92/168/27
f 56/119/28 58/123/28 93/169/28
f 93/169/29 58/123/29 60/127/29
f 60/127/30 62/132/30 95/171/30
f 6/12/31 4/8/31 2/3/31
f 2/3/31 64/135/31 62/131/31
f 62/131/31 60/128/31 58/124/31
f 58/124/31 56/120/31 54/114/31
f 54/114/31 52/110/31 50/106/31
f 50/106/31 48/102/31 46/98/31
f 46/98/31 44/94/31 42/90/31
f 42/90/31 40/86/31 38/82/31
f 38/82/31 36/76/31 34/72/31
f 34/72/31 32/68/31 30/64/31
f 30/64/31 28/60/31 26/56/31
f 26/56/31 24/52/31 22/46/31
f 22/46/31 20/42/31 18/38/31
f 18/38/31 16/34/31 14/30/31
f 14/30/31 12/26/31 10/22/31
f 10/22/31 8/16/31 6/12/31
f 6/12/31 2/3/31 62/131/31
f 62/131/31 58/124/31 54/114/31
f 54/114/31 50/106/31 46/98/31
f 46/98/31 42/90/31 38/82/31
f 38/82/31 34/72/31 30/64/31
f 30/64/31 26/56/31 22/46/31
f 22/46/31 18/38/31 14/30/31
f 14/30/31 10/22/31 6/12/31
f 6/12/31 62/131/31 54/114/31
f 54/114/31 46/98/31 38/82/31
f 38/82/31 30/64/31 22/46/31
f 22/46/31 14/30/31 6/12/31
f 6/12/31 54/114/31 38/82/31
f 62/132/32 64/136/32 96/172/32
f 64/136/33 2/4/33 65/137/33
f 63/134/34 1/1/34 3/5/34
f 3/5/34 5/9/34 7/13/34
f 7/13/34 9/18/34 11/23/34
f 11/23/34 13/27/34 15/31/34
f 15/31/34 17/35/34 19/39/34
f 19/39/34 21/43/34 23/48/34
f 23/48/34 25/53/34 27/57/34
f 27/57/34 29/61/34 31/66/34
f 31/66/34 33/69/34 35/73/34
f 35/73/34 37/78/34 39/83/34
f 39/83/34 41/87/34 43/91/34
f 43/91/34 45/95/34 47/99/34
f 47/99/34 49/103/34 51/107/34
f 51/107/34 53/111/34 55/117/34
f 55/117/34 57/121/34 59/125/34
f 59/125/34 61/129/34 63/134/34
f 63/134/34 3/5/34 7/13/34
f 7/13/34 11/23/34 15/31/34
f 15/31/34 19/39/34 23/48/34
f 23/48/34 27/57/34 31/66/34
f 31/66/34 35/73/34 39/83/34
f 39/83/34 43/91/34 47/99/34
f 47/99/34 51/107/34 55/117/34
f 55/117/34 59/125/34 63/134/34
f 63/134/34 7/13/34 15/31/34
f 15/31/34 23/48/34 31/66/34
f 31/66/34 39/83/34 47/99/34
f 47/99/34 55/117/34 63/134/34
f 63/134/34 15/31/34 31/66/34
f 96/172/35 65/137/35 128/208/35
f 95/171/36 96/172/36 127/207/36
f 94/170/37 95/171/37 126/206/37
f 93/169/38 94/170/38 125/205/38
f 123/203/39 92/167/39 93/169/39
f 91/166/40 92/168/40 123/202/40
f 90/165/41 91/166/41 122/201/41
f 89/164/42 90/165/42 121/200/42
f 88/163/43 89/164/43 120/199/43
f 87/162/44 88/163/44 119/198/44
f 86/161/45 87/162/45 118/197/45
f 85/160/46 86/161/46 117/196/46
f 84/159/47 85/160/47 116/195/47
f 83/157/48 84/159/48 115/194/48
f 82/156/49 83/158/49 114/192/49
f 81/155/50 82/156/50 113/191/50
f 111/189/51 80/154/51 81/155/51
f 79/153/52 80/154/52 111/189/52
f 78/152/53 79/153/53 110/188/53
f 77/151/54 78/152/54 109/187/54
f 107/185/55 76/149/55 77/151/55
f 75/148/56 76/150/56 107/184/56
f 74/147/57 75/148/57 106/183/57
f 73/146/58 74/147/58 105/182/58
f 72/145/59 73/146/59 104/181/59
f 71/144/60 72/145/60 103/180/60
f 70/143/61 71/144/61 102/179/61
f 69/141/62 70/143/62 101/178/62
f 68/140/63 69/142/63 100/176/63
f 98/174/64 67/139/64 68/140/64
f 66/138/65 67/139/65 98/174/65
f 65/137/66 66/138/66 97/173/66
f 128/208/67 97/173/67 129/209/67
f 97/173/68 98/174/68 130/210/68
f 98/174/69 99/175/69 131/211/69
f 99/175/70 100/176/70 132/213/70
f 100/177/71 101/178/71 133/214/71
f 101/178/72 102/179/72 134/215/72
f 134/215/73 102/179/73 103/180/73
f 103/180/74 104/181/74 136/217/74
f 104/181/75 105/182/75 137/218/75
f 105/182/76 106/183/76 138/219/76
f 106/183/77 107/184/77 139/221/77
f 107/185/78 108/186/78 140/222/78
f 108/186/79 109/187/79 141/223/79
f 109/187/80 110/188/80 142/224/80
f 142/224/81 110/188/81 111/189/81
f 111/189/82 112/190/82 144/226/82
f 144/226/83 112/190/83 113/191/83
f 113/191/84 114/192/84 146/229/84
f 114/193/85 115/194/85 147/230/85
f 115/194/86 116/195/86 148/231/86
f 116/195/87 117/196/87 149/232/87
f 117/196/88 118/197/88 150/233/88
f 118/197/89 119/198/89 151/234/89
f 119/198/90 120/199/90 152/235/90
f 120/199/91 121/200/91 153/236/91
f 121/200/92 122/201/92 154/237/92
f 122/201/93 123/202/93 155/239/93
f 123/203/94 124/204/94 156/240/94
f 124/204/95 125/205/95 157/241/95
f 125/205/96 126/206/96 158/242/96
f 126/206/97 127/207/97 159/243/97
f 127/207/98 128/208/98 160/244/98
f 159/243/99 160/244/99 1/2/99
f 61/130/100 158/242/100 159/243/100
f 157/241/101 158/242/101 61/130/101
f 156/240/102 157/241/102 59/126/102
f 155/238/103 156/240/103 57/122/103
f 53/112/104 154/237/104 155/239/104
f 153/236/105 154/237/105 53/112/105
f 152/235/106 153/236/106 51/108/106
f 151/234/107 152/235/107 49/104/107
f 150/233/108 151/234/108 47/100/108
f 149/232/109 150/233/109 45/96/109
f 148/231/110 149/232/110 43/92/110
f 147/230/111 148/231/111 41/88/111
f 146/228/112 147/230/112 39/84/112
f 145/227/113 146/229/113 37/79/113
f 144/226/114 145/227/114 35/74/114
f 143/225/115 144/226/115 33/70/115
f 29/62/116 142/224/116 143/225/116
f 141/223/117 142/224/117 29/62/117
f 140/222/118 141/223/118 27/58/118
f 139/220/119 140/222/119 25/54/119
f 138/219/120 139/221/120 23/49/120
f 137/218/121 138/219/121 21/44/121
f 136/217/122 137/218/122 19/40/122
f 135/216/123 136/217/123 17/36/123
f 134/215/124 135/216/124 15/32/124
f 133/214/125 134/215/125 13/28/125
f 132/212/126 133/214/126 11/24/126
f 131/211/127 132/213/127 9/19/127
f 130/210/128 131/211/128 7/14/128
f 129/209/129 130/210/129 5/10/129
f 160/244/130 129/209/130 3/6/130
