# Blender 3.5.0
# www.blender.org
mtllib stoneCross.mtl
o 十字架埋まっている
v -0.454412 0.017478 0.454412
v -0.547827 6.118582 0.547827
v -0.454412 0.017478 -0.454412
v -0.547827 6.118582 -0.547827
v 0.454412 0.017478 0.454412
v 0.547827 6.118582 0.547827
v 0.454412 0.017478 -0.454412
v 0.547827 6.118582 -0.547827
v -0.379479 3.705263 0.379479
v -0.379479 3.705263 -0.379479
v 0.379479 3.705263 -0.379479
v 0.379479 3.705263 0.379479
v -0.379479 4.595892 0.379479
v -0.379479 4.595892 -0.379479
v 0.379479 4.595892 -0.379479
v 0.379479 4.595892 0.379479
v -0.490500 4.726174 -2.003231
v -0.490500 3.574981 -2.003231
v 0.490500 4.726174 -2.003231
v 0.490500 3.574981 -2.003231
v 0.495418 4.731945 1.984506
v 0.495418 3.569210 1.984506
v -0.495418 3.569210 1.984506
v -0.495418 4.731945 1.984506
v 0.453667 4.310828 -1.464517
v 0.463089 4.310803 -1.602325
v 0.471412 4.244250 -1.724045
v 0.474343 4.140511 -1.766910
v 0.470517 4.045715 -1.710960
v 0.464366 4.007682 -1.620998
v 0.452056 4.013289 -1.440957
v 0.444554 4.132346 -1.331235
v 0.446633 4.257463 -1.361645
v 0.506949 4.310828 -1.467362
v 0.516371 4.310803 -1.605170
v 0.524694 4.244250 -1.726890
v 0.527625 4.140511 -1.769755
v 0.523799 4.045715 -1.713805
v 0.517648 4.007682 -1.623843
v 0.505338 4.013289 -1.443801
v 0.497836 4.132346 -1.334079
v 0.499915 4.257463 -1.364490
v 0.466606 4.307905 1.585647
v 0.454937 4.308074 1.424097
v 0.447415 4.234221 1.319967
v 0.443426 4.130963 1.264742
v 0.448008 4.031467 1.328175
v 0.458069 4.019825 1.467454
v 0.469802 4.020685 1.629881
v 0.475979 4.132227 1.715398
v 0.474281 4.246730 1.691888
v 0.529173 4.307905 1.591420
v 0.517503 4.308074 1.429870
v 0.509981 4.234221 1.325740
v 0.505992 4.130963 1.270516
v 0.510574 4.031467 1.333949
v 0.520635 4.019825 1.473227
v 0.532368 4.020685 1.635655
v 0.538545 4.132227 1.721172
v 0.536847 4.246730 1.697661
v 0.515778 5.828701 0.103860
v 0.515778 5.828701 -0.071153
v 0.507917 5.757602 -0.213352
v 0.494615 5.637280 -0.246167
v 0.486149 5.560712 -0.136783
v 0.486149 5.560712 0.016353
v 0.489173 5.588058 0.164021
v 0.498847 5.675565 0.251527
v 0.512755 5.801355 0.218712
v 0.555753 5.827850 0.103860
v 0.555753 5.827850 -0.071153
v 0.547893 5.756751 -0.213352
v 0.534590 5.636430 -0.246167
v 0.526125 5.559861 -0.136783
v 0.526125 5.559861 0.016353
v 0.529148 5.587207 0.164021
v 0.538823 5.674713 0.251527
v 0.552730 5.800505 0.218712
vn -0.9939 -0.1099 -0.0000
vn -0.0000 -0.1099 -0.9939
vn 0.9939 -0.1099 -0.0000
vn -0.0000 -0.1099 0.9939
vn -0.0000 -1.0000 -0.0000
vn -0.0000 1.0000 -0.0000
vn -0.0000 0.0203 0.9998
vn 0.9998 0.0203 -0.0000
vn -0.0000 0.0203 -0.9998
vn -0.9998 0.0203 -0.0000
vn -0.0000 -0.9964 -0.0845
vn 1.0000 -0.0000 -0.0000
vn -0.0000 -0.9968 0.0800
vn -1.0000 -0.0000 -0.0000
vn -0.0000 -0.0000 -1.0000
vn 0.9977 -0.0000 0.0682
vn -0.0000 0.9968 0.0800
vn -0.9977 -0.0000 0.0682
vn -0.0000 -0.0000 1.0000
vn 0.9974 -0.0000 -0.0720
vn -0.0000 0.9964 -0.0845
vn -0.9974 -0.0000 -0.0720
vn 0.0518 0.2350 0.9706
vn -0.0209 -0.9204 -0.3905
vn -0.0257 0.8764 -0.4809
vn 0.0246 0.8867 0.4617
vn 0.0017 -0.9995 0.0312
vn -0.0493 0.3802 -0.9236
vn 0.0393 -0.6758 0.7360
vn -0.0460 -0.5064 -0.8611
vn -0.0000 1.0000 -0.0002
vn 0.0777 -0.5334 -0.8423
vn -0.0001 1.0000 0.0011
vn -0.0901 0.1990 0.9758
vn 0.0077 -0.9964 -0.0838
vn 0.0535 0.8127 -0.5802
vn -0.0462 0.8642 0.5010
vn -0.0005 -1.0000 0.0053
vn 0.0812 0.4676 -0.8802
vn -0.0732 -0.6042 0.7934
vn -0.0209 -0.9830 0.1825
vn 0.0056 0.2625 -0.9649
vn -0.0150 -0.7062 0.7079
vn -0.0174 -0.8185 -0.5743
vn 0.0213 0.9998 -0.0000
vn 0.0054 0.2519 0.9677
vn -0.0213 -0.9998 -0.0000
vn 0.0190 0.8938 -0.4480
vn 0.0207 0.9725 0.2321
vn -0.0208 -0.9204 -0.3905
vt 0.799767 0.210206
vt 0.553895 0.961281
vt 0.343692 0.568426
vt 0.172123 0.590060
vt 0.944899 0.253419
vt 0.570592 0.999999
vt 0.343694 0.961281
vt 0.343692 0.358221
vt 0.799767 0.375545
vt 0.172123 0.336642
vt 0.944899 0.375545
vt 0.823938 1.000000
vt 0.000000 0.568423
vt 0.553893 0.751075
vt 0.799767 0.000000
vt 0.944899 0.000000
vt 0.570592 0.746580
vt 0.172123 0.590066
vt 0.799767 0.585751
vt 0.343692 0.751075
vt 0.000000 0.358217
vt 0.823938 0.746582
vt 0.944899 0.628964
vt 0.172123 0.336647
vt 0.597407 0.000000
vt 0.905168 0.192874
vt 0.238738 0.551082
vt 0.905168 0.392877
vt 0.544919 0.375545
vt 0.238738 0.375540
vt 0.369376 0.375545
vt 0.905168 0.568419
vt 0.104664 0.375527
vt 0.905168 0.017332
vt 0.772950 0.000000
vt 0.104664 0.551070
vt 0.905168 0.214481
vt 0.213563 0.551083
vt 0.772954 0.375545
vt 0.905168 0.414483
vt 0.369372 0.000000
vt 0.213563 0.375541
vt 0.905168 0.590026
vt 0.544915 0.000000
vt 0.129855 0.375528
vt 0.905168 0.038938
vt 0.597411 0.375545
vt 0.129855 0.551070
vt 0.839927 0.812651
vt 0.343692 0.375545
vt 0.210937 0.000001
vt 0.872385 0.812651
vt 0.570592 0.751075
vt 0.243477 0.000000
vt 0.839927 0.585751
vt 0.133012 0.000001
vt 0.570592 0.375545
vt 0.343692 0.751075
vt 0.872385 0.585751
vt 0.100451 0.000000
vt 0.905168 0.585751
vt 0.570592 0.746580
vt 0.133152 0.922342
vt 0.872385 0.585751
vt 0.799767 0.371251
vt 0.100264 0.922341
vt 0.570592 0.371251
vt 0.872385 0.814926
vt 0.243687 0.922341
vt 0.905168 0.814926
vt 0.799767 0.746580
vt 0.210820 0.922343
vt 0.121439 0.124589
vt 0.825832 0.719263
vt 0.121394 0.092718
vt 0.825832 0.751203
vt 0.119472 0.064568
vt 0.825835 0.779369
vt 0.116524 0.054654
vt 0.825839 0.789233
vt 0.838087 0.686755
vt 0.113860 0.067594
vt 0.838084 0.673766
vt 0.112814 0.088400
vt 0.838082 0.652903
vt 0.113031 0.130038
vt 0.838083 0.611165
vt 0.838087 0.585751
vt 0.116434 0.155414
vt 0.825839 0.688252
vt 0.119963 0.148381
vt 0.825834 0.695385
vt 0.828025 0.241004
vt 0.838082 0.720760
vt 0.827904 0.272875
vt 0.838082 0.752700
vt 0.829679 0.301035
vt 0.838085 0.780865
vt 0.838089 0.790730
vt 0.832575 0.310963
vt 0.825837 0.688252
vt 0.835306 0.298038
vt 0.825833 0.675263
vt 0.836461 0.277238
vt 0.825832 0.654400
vt 0.836461 0.235599
vt 0.825832 0.612662
vt 0.833190 0.210206
vt 0.838089 0.689749
vt 0.825837 0.587248
vt 0.829625 0.217220
vt 0.838084 0.696882
vt 0.121295 0.830078
vt 0.814104 0.660027
vt 0.121355 0.792709
vt 0.814104 0.622575
vt 0.119302 0.768622
vt 0.814108 0.598484
vt 0.814114 0.585751
vt 0.116401 0.755847
vt 0.827904 0.317083
vt 0.113565 0.770520
vt 0.827903 0.302355
vt 0.113187 0.802738
vt 0.827903 0.270055
vt 0.113156 0.840311
vt 0.827903 0.232389
vt 0.116282 0.860092
vt 0.814114 0.690226
vt 0.827904 0.212580
vt 0.119528 0.854654
vt 0.814108 0.684698
vt 0.852052 0.284429
vt 0.799767 0.662402
vt 0.852052 0.247060
vt 0.799767 0.624949
vt 0.849960 0.222976
vt 0.799771 0.600859
vt 0.847038 0.210206
vt 0.813566 0.314709
vt 0.799777 0.588126
vt 0.844225 0.224884
vt 0.813565 0.299980
vt 0.843900 0.257102
vt 0.813565 0.267680
vt 0.843929 0.294674
vt 0.813565 0.230015
vt 0.813566 0.210206
vt 0.847087 0.314451
vt 0.799777 0.692601
vt 0.850325 0.309007
vt 0.799770 0.687073
vt 0.164076 0.487368
vt 0.809357 0.291051
vt 0.164076 0.446888
vt 0.809013 0.250585
vt 0.162103 0.413996
vt 0.810552 0.217738
vt 0.813565 0.210206
vt 0.158763 0.406401
vt 0.816586 0.585751
vt 0.156637 0.431698
vt 0.814415 0.611047
vt 0.156637 0.467118
vt 0.814114 0.646465
vt 0.157396 0.501274
vt 0.814523 0.680618
vt 0.159825 0.521517
vt 0.816586 0.700859
vt 0.813565 0.325265
vt 0.163317 0.513931
vt 0.810283 0.317620
vt 0.836461 0.244355
vt 0.800111 0.291131
vt 0.836461 0.284834
vt 0.799767 0.250664
vt 0.838435 0.317727
vt 0.801306 0.217818
vt 0.841775 0.325321
vt 0.804320 0.210285
vt 0.825832 0.585830
vt 0.843900 0.300024
vt 0.823661 0.611126
vt 0.843900 0.264605
vt 0.823360 0.646544
vt 0.843141 0.230449
vt 0.823768 0.680697
vt 0.825832 0.700938
vt 0.840712 0.210206
vt 0.804320 0.325344
vt 0.837220 0.217791
vt 0.801037 0.317699
s 0
usemtl マテリアル.006
f 2/4/1 14/42/1 13/38/1
f 4/11/2 15/43/2 14/40/2
f 66/164/3 67/166/3 16/48/3
f 6/16/4 13/37/4 16/46/4
f 7/20/5 1/2/5 3/7/5
f 4/12/6 6/17/6 8/22/6
f 5/15/7 9/26/7 1/1/7
f 7/21/8 12/36/8 5/13/8
f 3/9/9 11/32/9 7/19/9
f 1/3/10 10/30/10 3/8/10
f 12/35/11 23/67/11 9/25/11
f 15/45/12 12/36/12 11/33/12
f 10/29/13 20/58/13 11/31/13
f 13/38/14 10/30/14 9/27/14
f 17/49/15 20/59/15 18/52/15
f 25/73/16 26/75/16 19/56/16
f 15/44/17 17/50/17 14/41/17
f 14/42/18 18/54/18 10/30/18
f 21/61/19 23/68/19 22/64/19
f 12/36/20 49/126/20 22/66/20
f 13/39/21 21/62/21 16/47/21
f 9/27/22 24/72/22 13/38/22
f 39/104/16 35/95/16 42/111/16
f 20/60/16 31/86/16 11/33/16
f 33/92/23 41/109/23 42/112/23
f 29/83/24 39/105/24 30/85/24
f 27/78/25 35/96/25 36/98/25
f 25/74/26 42/112/26 34/94/26
f 30/85/27 40/107/27 31/87/27
f 28/80/28 36/98/28 37/99/28
f 31/87/29 41/110/29 32/88/29
f 28/81/30 38/103/30 29/83/30
f 26/76/31 34/94/31 35/96/31
f 53/135/20 58/146/20 56/142/20
f 43/113/20 44/115/20 21/63/20
f 47/123/32 55/140/32 56/143/32
f 43/114/33 53/136/33 44/116/33
f 50/129/34 60/152/34 51/132/34
f 48/125/35 56/143/35 57/145/35
f 44/116/36 54/138/36 45/118/36
f 51/132/37 52/134/37 43/114/37
f 49/127/38 57/145/38 58/147/38
f 45/118/39 55/141/39 46/119/39
f 50/130/40 58/147/40 59/148/40
f 71/175/3 76/186/3 74/182/3
f 61/153/3 62/155/3 8/24/3
f 67/167/41 75/185/41 76/187/41
f 63/158/42 73/180/42 64/159/42
f 68/169/43 76/187/43 77/188/43
f 64/161/44 74/183/44 65/163/44
f 61/154/45 71/176/45 62/156/45
f 69/172/46 77/190/46 78/192/46
f 65/163/47 75/185/47 66/165/47
f 62/156/48 72/178/48 63/158/48
f 61/154/49 78/192/49 70/174/49
f 2/4/1 4/10/1 14/42/1
f 4/11/2 8/23/2 15/43/2
f 16/48/3 15/45/3 64/160/3
f 16/48/3 64/160/3 65/162/3
f 67/166/3 68/168/3 16/48/3
f 16/48/3 65/162/3 66/164/3
f 6/16/4 2/5/4 13/37/4
f 7/20/5 5/14/5 1/2/5
f 4/12/6 2/6/6 6/17/6
f 5/15/7 12/34/7 9/26/7
f 7/21/8 11/33/8 12/36/8
f 3/9/9 10/28/9 11/32/9
f 1/3/10 9/27/10 10/30/10
f 12/35/11 22/65/11 23/67/11
f 15/45/12 16/48/12 12/36/12
f 10/29/13 18/53/13 20/58/13
f 13/38/14 14/42/14 10/30/14
f 17/49/15 19/55/15 20/59/15
f 19/56/16 15/45/16 11/33/16
f 11/33/16 32/89/16 33/91/16
f 19/56/16 11/33/16 33/91/16
f 28/79/16 20/60/16 19/56/16
f 27/77/16 28/79/16 19/56/16
f 19/56/16 33/91/16 25/73/16
f 26/75/16 27/77/16 19/56/16
f 15/44/17 19/57/17 17/50/17
f 14/42/18 17/51/18 18/54/18
f 21/61/19 24/70/19 23/68/19
f 12/36/20 46/120/20 47/122/20
f 12/36/20 47/122/20 48/124/20
f 49/126/20 50/128/20 22/66/20
f 12/36/20 48/124/20 49/126/20
f 13/39/21 24/71/21 21/62/21
f 9/27/22 23/69/22 24/72/22
f 41/108/16 40/106/16 39/104/16
f 39/104/16 38/102/16 37/100/16
f 37/100/16 36/97/16 35/95/16
f 35/95/16 34/93/16 42/111/16
f 42/111/16 41/108/16 39/104/16
f 39/104/16 37/100/16 35/95/16
f 20/60/16 28/79/16 29/82/16
f 20/60/16 29/82/16 30/84/16
f 31/86/16 32/89/16 11/33/16
f 20/60/16 30/84/16 31/86/16
f 33/92/23 32/90/23 41/109/23
f 29/83/50 38/103/50 39/105/50
f 27/78/25 26/76/25 35/96/25
f 25/74/26 33/92/26 42/112/26
f 30/85/27 39/105/27 40/107/27
f 28/80/28 27/78/28 36/98/28
f 31/87/29 40/107/29 41/110/29
f 28/81/30 37/101/30 38/103/30
f 26/76/31 25/74/31 34/94/31
f 55/139/20 54/137/20 53/135/20
f 53/135/20 52/133/20 60/151/20
f 60/151/20 59/149/20 58/146/20
f 58/146/20 57/144/20 56/142/20
f 56/142/20 55/139/20 53/135/20
f 53/135/20 60/151/20 58/146/20
f 21/63/20 22/66/20 50/128/20
f 21/63/20 50/128/20 51/131/20
f 12/36/20 16/48/20 21/63/20
f 45/117/20 46/120/20 12/36/20
f 44/115/20 45/117/20 12/36/20
f 21/63/20 51/131/20 43/113/20
f 44/115/20 12/36/20 21/63/20
f 47/123/32 46/121/32 55/140/32
f 43/114/33 52/134/33 53/136/33
f 50/129/34 59/150/34 60/152/34
f 48/125/35 47/123/35 56/143/35
f 44/116/36 53/136/36 54/138/36
f 51/132/37 60/152/37 52/134/37
f 49/127/38 48/125/38 57/145/38
f 45/118/39 54/138/39 55/141/39
f 50/130/40 49/127/40 58/147/40
f 73/179/3 72/177/3 71/175/3
f 71/175/3 70/173/3 78/191/3
f 78/191/3 77/189/3 76/186/3
f 76/186/3 75/184/3 74/182/3
f 74/182/3 73/179/3 71/175/3
f 71/175/3 78/191/3 76/186/3
f 6/18/3 16/48/3 68/168/3
f 6/18/3 68/168/3 69/171/3
f 64/160/3 15/45/3 8/24/3
f 63/157/3 64/160/3 8/24/3
f 8/24/3 6/18/3 69/171/3
f 8/24/3 69/171/3 61/153/3
f 62/155/3 63/157/3 8/24/3
f 67/167/41 66/165/41 75/185/41
f 63/158/42 72/178/42 73/180/42
f 68/169/43 67/167/43 76/187/43
f 64/161/44 73/181/44 74/183/44
f 61/154/45 70/174/45 71/176/45
f 69/172/46 68/170/46 77/190/46
f 65/163/47 74/183/47 75/185/47
f 62/156/48 71/176/48 72/178/48
f 61/154/49 69/172/49 78/192/49
