# Blender 3.5.0
# www.blender.org
mtllib searchRing.mtl
o 円柱
v 0.000000 -0.037843 -1.000000
v 0.000000 0.037843 -1.000000
v 0.195090 -0.037843 -0.980785
v 0.195090 0.037843 -0.980785
v 0.382683 -0.037843 -0.923880
v 0.382683 0.037843 -0.923880
v 0.555570 -0.037843 -0.831470
v 0.555570 0.037843 -0.831470
v 0.707107 -0.037843 -0.707107
v 0.707107 0.037843 -0.707107
v 0.831470 -0.037843 -0.555570
v 0.831470 0.037843 -0.555570
v 0.923880 -0.037843 -0.382683
v 0.923880 0.037843 -0.382683
v 0.980785 -0.037843 -0.195090
v 0.980785 0.037843 -0.195090
v 1.000000 -0.037843 0.000000
v 1.000000 0.037843 0.000000
v 0.980785 -0.037843 0.195090
v 0.980785 0.037843 0.195090
v 0.923880 -0.037843 0.382683
v 0.923880 0.037843 0.382683
v 0.831470 -0.037843 0.555570
v 0.831470 0.037843 0.555570
v 0.707107 -0.037843 0.707107
v 0.707107 0.037843 0.707107
v 0.555570 -0.037843 0.831470
v 0.555570 0.037843 0.831470
v 0.382683 -0.037843 0.923880
v 0.382683 0.037843 0.923880
v 0.195090 -0.037843 0.980785
v 0.195090 0.037843 0.980785
v 0.000000 -0.037843 1.000000
v 0.000000 0.037843 1.000000
v -0.195090 -0.037843 0.980785
v -0.195090 0.037843 0.980785
v -0.382683 -0.037843 0.923880
v -0.382683 0.037843 0.923880
v -0.555570 -0.037843 0.831470
v -0.555570 0.037843 0.831470
v -0.707107 -0.037843 0.707107
v -0.707107 0.037843 0.707107
v -0.831470 -0.037843 0.555570
v -0.831470 0.037843 0.555570
v -0.923880 -0.037843 0.382683
v -0.923880 0.037843 0.382683
v -0.980785 -0.037843 0.195090
v -0.980785 0.037843 0.195090
v -1.000000 -0.037843 0.000000
v -1.000000 0.037843 0.000000
v -0.980785 -0.037843 -0.195090
v -0.980785 0.037843 -0.195090
v -0.923880 -0.037843 -0.382683
v -0.923880 0.037843 -0.382683
v -0.831470 -0.037843 -0.555570
v -0.831470 0.037843 -0.555570
v -0.707107 -0.037843 -0.707107
v -0.707107 0.037843 -0.707107
v -0.555570 -0.037843 -0.831470
v -0.555570 0.037843 -0.831470
v -0.382683 -0.037843 -0.923880
v -0.382683 0.037843 -0.923880
v -0.195090 -0.037843 -0.980785
v -0.195090 0.037843 -0.980785
v -0.000000 -0.039250 -1.162692
v 0.221590 -0.037905 -1.119575
v 0.221590 0.037905 -1.119575
v -0.000000 0.039250 -1.162692
v 0.434665 -0.037905 -1.049374
v 0.434665 0.037905 -1.049374
v 0.631036 -0.037905 -0.944412
v 0.631036 0.037905 -0.944412
v 0.803156 -0.037905 -0.803156
v 0.803156 0.037905 -0.803156
v 0.944412 -0.037905 -0.631036
v 0.944412 0.037905 -0.631036
v 1.049374 -0.037905 -0.434665
v 1.049374 0.037905 -0.434665
v 1.121809 -0.037905 -0.221590
v 1.121809 0.037905 -0.221590
v 1.176120 -0.039250 0.013429
v 1.176120 0.039250 0.013429
v 1.121809 -0.037905 0.221590
v 1.121809 0.037905 0.221590
v 1.049374 -0.037905 0.434665
v 1.049374 0.037905 0.434665
v 0.944412 -0.037905 0.631036
v 0.944412 0.037905 0.631036
v 0.803156 -0.037905 0.803156
v 0.803156 0.037905 0.803156
v 0.631036 -0.037905 0.944412
v 0.631036 0.037905 0.944412
v 0.434665 -0.037905 1.049374
v 0.434665 0.037905 1.049374
v 0.221590 -0.037905 1.170617
v 0.221590 0.037905 1.170617
v -0.000000 -0.037905 1.400393
v -0.000000 0.037905 1.400393
v -0.221590 -0.037905 1.170617
v -0.221590 0.037905 1.170617
v -0.434665 -0.037905 1.049374
v -0.434665 0.037905 1.049374
v -0.631036 -0.037905 0.944412
v -0.631036 0.037905 0.944412
v -0.803156 -0.037905 0.803156
v -0.803156 0.037905 0.803156
v -0.944412 -0.037905 0.631036
v -0.944412 0.037905 0.631036
v -1.049374 -0.037905 0.434665
v -1.049374 0.037905 0.434665
v -1.122819 -0.037905 0.221590
v -1.122819 0.037905 0.221590
v -1.176120 -0.039250 0.013429
v -1.176120 0.039250 0.013429
v -1.122819 -0.037905 -0.221590
v -1.122819 0.037905 -0.221590
v -1.049374 -0.037905 -0.434665
v -1.049374 0.037905 -0.434665
v -0.944412 -0.037905 -0.631036
v -0.944412 0.037905 -0.631036
v -0.803156 -0.037905 -0.803156
v -0.803156 0.037905 -0.803156
v -0.631036 -0.037905 -0.944412
v -0.631036 0.037905 -0.944412
v -0.434665 -0.037905 -1.049374
v -0.434665 0.037905 -1.049374
v -0.221590 -0.037905 -1.119575
v -0.221590 0.037905 -1.119575
vn -0.0980 -0.0000 0.9952
vn -0.2903 -0.0000 0.9569
vn -0.4714 -0.0000 0.8819
vn -0.6344 -0.0000 0.7730
vn -0.7730 -0.0000 0.6344
vn -0.8819 -0.0000 0.4714
vn -0.9569 -0.0000 0.2903
vn -0.9952 -0.0000 0.0980
vn -0.9952 -0.0000 -0.0980
vn -0.9569 -0.0000 -0.2903
vn -0.8819 -0.0000 -0.4714
vn -0.7730 -0.0000 -0.6344
vn -0.6344 -0.0000 -0.7730
vn -0.4714 -0.0000 -0.8819
vn -0.2903 -0.0000 -0.9569
vn -0.0980 -0.0000 -0.9952
vn 0.0980 -0.0000 -0.9952
vn 0.2903 -0.0000 -0.9569
vn 0.4714 -0.0000 -0.8819
vn 0.6344 -0.0000 -0.7730
vn 0.7730 -0.0000 -0.6344
vn 0.8819 -0.0000 -0.4714
vn 0.9569 -0.0000 -0.2903
vn 0.9952 -0.0000 -0.0980
vn 0.9952 -0.0000 0.0980
vn 0.9569 -0.0000 0.2903
vn 0.8819 -0.0000 0.4714
vn 0.7730 -0.0000 0.6344
vn 0.6344 -0.0000 0.7730
vn 0.4714 -0.0000 0.8819
vn 0.2903 -0.0000 0.9569
vn 0.0980 -0.0000 0.9952
vn 0.1910 -0.0000 -0.9816
vn 0.3129 -0.0000 -0.9498
vn 0.9468 -0.0000 -0.3219
vn 0.9743 -0.0000 -0.2252
vn 0.9676 -0.0000 0.2525
vn 0.9468 -0.0000 0.3219
vn 0.4946 -0.0000 0.8691
vn 0.7198 -0.0000 0.6942
vn -0.7198 -0.0000 0.6942
vn -0.4946 -0.0000 0.8691
vn -0.9454 -0.0000 0.3259
vn -0.9687 -0.0000 0.2481
vn -0.9752 -0.0000 -0.2212
vn -0.9454 -0.0000 -0.3259
vn -0.3129 -0.0000 -0.9498
vn -0.1910 -0.0000 -0.9816
vn 0.0001 -1.0000 -0.0004
vn -0.0083 1.0000 0.0043
vn -0.0000 -1.0000 0.0004
vn 0.0004 -1.0000 0.0002
vn 0.0002 1.0000 -0.0003
vn 0.0044 1.0000 0.0086
vn 0.0004 1.0000 0.0002
vn -0.0004 -1.0000 -0.0001
vn 0.0002 -1.0000 -0.0004
vn -0.0004 1.0000 -0.0001
vn 0.0004 -1.0000 0.0003
vn 0.0002 1.0000 -0.0004
vn -0.0001 -1.0000 0.0004
vn 0.0004 1.0000 0.0003
vn -0.0004 -1.0000 -0.0002
vn -0.0001 1.0000 0.0004
vn 0.0003 -1.0000 -0.0004
vn -0.0004 1.0000 -0.0002
vn 0.0003 -1.0000 0.0004
vn 0.0003 1.0000 -0.0004
vn -0.0002 -1.0000 0.0004
vn 0.0003 1.0000 0.0004
vn -0.0004 -1.0000 -0.0003
vn -0.0002 1.0000 0.0004
vn 0.0004 -1.0000 -0.0003
vn -0.0004 1.0000 -0.0003
vn 0.0002 -1.0000 0.0004
vn 0.0004 1.0000 -0.0003
vn -0.0003 -1.0000 0.0004
vn 0.0002 1.0000 0.0004
vn -0.0003 -1.0000 -0.0004
vn -0.0003 1.0000 0.0004
vn 0.0004 -1.0000 -0.0002
vn -0.0003 1.0000 -0.0004
vn 0.0001 -1.0000 0.0004
vn 0.0004 1.0000 -0.0002
vn -0.0004 -1.0000 0.0003
vn 0.0001 1.0000 0.0004
vn -0.0002 -1.0000 -0.0004
vn -0.0004 1.0000 0.0003
vn 0.0004 -1.0000 -0.0001
vn -0.0002 1.0000 -0.0004
vn -0.0044 -1.0000 0.0086
vn 0.0004 1.0000 -0.0001
vn -0.0004 -1.0000 0.0002
vn -0.0000 1.0000 0.0004
vn -0.0002 -1.0000 -0.0003
vn -0.0004 1.0000 0.0002
vn 0.0083 -1.0000 0.0043
vn -0.0001 1.0000 -0.0004
vn 0.0004 1.0000 -0.0000
vn -0.0004 -1.0000 0.0001
vn -0.0002 -1.0000 -0.0002
vn -0.0004 1.0000 0.0001
vn 0.0004 -1.0000 -0.0000
vn -0.0000 1.0000 -0.0003
vn 0.0077 1.0000 -0.0040
vn -0.0077 -1.0000 -0.0039
vn -0.0000 -1.0000 -0.0003
vn -0.0004 1.0000 -0.0000
vn 0.0004 -1.0000 0.0001
vn 0.0002 1.0000 -0.0002
vn 0.0004 1.0000 0.0001
vn -0.0004 -1.0000 -0.0000
vn 0.0002 -1.0000 -0.0003
vn 0.0044 -1.0000 0.0086
vn 0.0001 1.0000 -0.0004
vn -0.0044 1.0000 0.0086
vn -0.0001 -1.0000 -0.0004
vn -0.0002 1.0000 -0.0003
vn 0.0083 1.0000 0.0043
vn 0.0077 -1.0000 -0.0040
vn -0.0002 1.0000 -0.0002
vn 0.0002 -1.0000 -0.0002
vn -0.0077 1.0000 -0.0039
vn -0.0083 -1.0000 0.0043
vt 0.801272 0.499074
vt 0.017972 0.973890
vt 0.509769 0.560741
vt 0.801272 0.774674
vt 0.017972 0.698138
vt 0.540568 0.235187
vt 0.822563 0.499074
vt 0.488407 0.575014
vt 0.822563 0.774674
vt 0.554841 0.213824
vt 0.846688 0.499074
vt 0.464670 0.584846
vt 0.846688 0.774674
vt 0.564673 0.190088
vt 0.872721 0.499074
vt 0.439472 0.589858
vt 0.872721 0.774674
vt 0.569685 0.164890
vt 0.899661 0.499074
vt 0.413780 0.589858
vt 0.899661 0.774674
vt 0.569685 0.139198
vt 0.926472 0.499074
vt 0.388583 0.584846
vt 0.926472 0.774674
vt 0.564673 0.114000
vt 0.952125 0.499074
vt 0.364847 0.575014
vt 0.952125 0.774674
vt 0.554841 0.090264
vt 0.975633 0.499074
vt 0.343485 0.560741
vt 0.975633 0.774674
vt 0.540568 0.068903
vt 0.280020 0.003906
vt 0.996094 0.499074
vt 0.325319 0.542574
vt 0.996094 0.774674
vt 0.003906 0.003906
vt 0.522401 0.050737
vt 0.280020 0.026245
vt 0.311046 0.521212
vt 0.003906 0.026245
vt 0.501039 0.036464
vt 0.280020 0.051136
vt 0.301215 0.497477
vt 0.003906 0.051136
vt 0.477303 0.026633
vt 0.280020 0.077621
vt 0.296204 0.472279
vt 0.003906 0.077621
vt 0.452105 0.021622
vt 0.280020 0.104683
vt 0.296205 0.446587
vt 0.003906 0.104683
vt 0.426414 0.021623
vt 0.280020 0.131283
vt 0.301218 0.421389
vt 0.003906 0.131283
vt 0.401216 0.026636
vt 0.280020 0.156397
vt 0.311051 0.397653
vt 0.003906 0.156397
vt 0.377480 0.036468
vt 0.280020 0.179061
vt 0.325325 0.376292
vt 0.003906 0.179060
vt 0.356118 0.050743
vt 0.280020 0.198403
vt 0.343492 0.358125
vt 0.003906 0.198403
vt 0.337952 0.068910
vt 0.280020 0.220807
vt 0.364855 0.343851
vt 0.003906 0.220807
vt 0.323678 0.090272
vt 0.280020 0.245742
vt 0.388591 0.334020
vt 0.003906 0.245742
vt 0.313846 0.114009
vt 0.280020 0.272250
vt 0.413789 0.329008
vt 0.003906 0.272250
vt 0.308834 0.139207
vt 0.280020 0.299313
vt 0.439481 0.329008
vt 0.003906 0.299313
vt 0.308834 0.164899
vt 0.280020 0.325891
vt 0.464679 0.334020
vt 0.003906 0.325891
vt 0.313847 0.190097
vt 0.280020 0.350963
vt 0.488415 0.343851
vt 0.003906 0.350963
vt 0.323678 0.213832
vt 0.280020 0.373564
vt 0.509776 0.358125
vt 0.003906 0.373564
vt 0.337952 0.235194
vt 0.212688 0.973890
vt 0.280020 0.392826
vt 0.527942 0.376292
vt 0.003906 0.392826
vt 0.212688 0.698138
vt 0.356118 0.253360
vt 0.190921 0.973890
vt 0.542215 0.397653
vt 0.190921 0.698138
vt 0.377480 0.267633
vt 0.166447 0.973890
vt 0.552046 0.421389
vt 0.166447 0.698138
vt 0.401216 0.277464
vt 0.140205 0.973890
vt 0.557057 0.446587
vt 0.140205 0.698138
vt 0.426414 0.282475
vt 0.113205 0.973890
vt 0.557057 0.472279
vt 0.113205 0.698138
vt 0.452106 0.282474
vt 0.086483 0.973890
vt 0.552044 0.497477
vt 0.086483 0.698138
vt 0.477304 0.277461
vt 0.061067 0.973890
vt 0.542211 0.521213
vt 0.061067 0.698138
vt 0.501040 0.267629
vt 0.037934 0.973890
vt 0.527937 0.542574
vt 0.037934 0.698138
vt 0.522401 0.253354
vt 0.003906 0.405162
vt 0.242537 0.618676
vt 0.523321 0.577254
vt 0.247393 0.645731
vt 0.497262 0.591280
vt 0.521215 0.645731
vt 0.571106 0.222680
vt 0.526071 0.618676
vt 0.003906 0.688651
vt 0.557081 0.248738
vt 0.247393 0.674259
vt 0.469839 0.601883
vt 0.521215 0.674259
vt 0.581710 0.195256
vt 0.247393 0.704069
vt 0.441218 0.607576
vt 0.521215 0.704069
vt 0.587403 0.166635
vt 0.247393 0.734504
vt 0.412036 0.607576
vt 0.521215 0.734504
vt 0.587403 0.137454
vt 0.247393 0.764393
vt 0.383415 0.601883
vt 0.521215 0.764393
vt 0.581710 0.108833
vt 0.247393 0.792587
vt 0.356456 0.590716
vt 0.521215 0.792587
vt 0.570543 0.081873
vt 0.247393 0.818823
vt 0.331402 0.575152
vt 0.521215 0.818823
vt 0.554979 0.056820
vt 0.242537 0.845073
vt 0.830794 0.209702
vt 0.306385 0.555888
vt 0.526071 0.845073
vt 0.830794 0.486847
vt 0.535715 0.031803
vt 0.805267 0.214449
vt 0.294557 0.530254
vt 0.805267 0.482101
vt 0.510081 0.019975
vt 0.777631 0.214449
vt 0.284181 0.502646
vt 0.777631 0.482101
vt 0.482472 0.009598
vt 0.748748 0.214449
vt 0.278489 0.474025
vt 0.748748 0.482101
vt 0.453852 0.003906
vt 0.719029 0.214449
vt 0.278490 0.444844
vt 0.719029 0.482101
vt 0.424670 0.003907
vt 0.689618 0.214449
vt 0.284184 0.416223
vt 0.689618 0.482101
vt 0.396050 0.009601
vt 0.661643 0.214449
vt 0.295352 0.389263
vt 0.661643 0.482101
vt 0.369090 0.020770
vt 0.630559 0.214449
vt 0.306859 0.359265
vt 0.630559 0.482100
vt 0.339092 0.032277
vt 0.547933 0.836799
vt 0.587935 0.214449
vt 0.310205 0.317563
vt 0.587935 0.482100
vt 0.547933 0.568431
vt 0.297390 0.035623
vt 0.590658 0.836799
vt 0.351758 0.322418
vt 0.590658 0.568431
vt 0.302245 0.077176
vt 0.622529 0.836799
vt 0.383425 0.316986
vt 0.622529 0.568431
vt 0.296812 0.108843
vt 0.651275 0.836799
vt 0.412046 0.311293
vt 0.651275 0.568431
vt 0.291119 0.137464
vt 0.681022 0.836799
vt 0.441228 0.311293
vt 0.681022 0.568431
vt 0.291119 0.166645
vt 0.710628 0.836799
vt 0.469848 0.316986
vt 0.710628 0.568431
vt 0.296812 0.195266
vt 0.738954 0.836799
vt 0.496808 0.328153
vt 0.738954 0.568431
vt 0.307980 0.222226
vt 0.765767 0.836799
vt 0.521964 0.343633
vt 0.765767 0.568431
vt 0.323460 0.247382
vt 0.790172 0.841558
vt 0.230353 0.405162
vt 0.544694 0.360320
vt 0.790172 0.563672
vt 0.230353 0.688651
vt 0.340147 0.270112
vt 0.201064 0.410017
vt 0.558809 0.388530
vt 0.201064 0.683795
vt 0.368357 0.284227
vt 0.172304 0.410017
vt 0.569083 0.416223
vt 0.172304 0.683795
vt 0.396050 0.294501
vt 0.142524 0.410017
vt 0.574775 0.444844
vt 0.142524 0.683795
vt 0.424671 0.300193
vt 0.112096 0.410017
vt 0.574774 0.474025
vt 0.112096 0.683795
vt 0.453852 0.300192
vt 0.082188 0.410017
vt 0.569080 0.502646
vt 0.082188 0.683795
vt 0.482473 0.294498
vt 0.053950 0.410017
vt 0.557912 0.529606
vt 0.053950 0.683795
vt 0.509433 0.283330
vt 0.027884 0.410017
vt 0.542161 0.554433
vt 0.027884 0.683795
vt 0.534260 0.267579
s 0
usemtl マテリアル.001
f 3/7/1 2/4/1 1/1/1
f 5/11/2 4/9/2 3/7/2
f 7/15/3 6/13/3 5/11/3
f 9/19/4 8/17/4 7/15/4
f 11/23/5 10/21/5 9/19/5
f 13/27/6 12/25/6 11/23/6
f 15/31/7 14/29/7 13/27/7
f 17/36/8 16/33/8 15/31/8
f 19/41/9 18/39/9 17/35/9
f 21/45/10 20/43/10 19/41/10
f 23/49/11 22/47/11 21/45/11
f 25/53/12 24/51/12 23/49/12
f 27/57/13 26/55/13 25/53/13
f 29/61/14 28/59/14 27/57/14
f 31/65/15 30/63/15 29/61/15
f 33/69/16 32/67/16 31/65/16
f 35/73/17 34/71/17 33/69/17
f 37/77/18 36/75/18 35/73/18
f 39/81/19 38/79/19 37/77/19
f 41/85/20 40/83/20 39/81/20
f 43/89/21 42/87/21 41/85/21
f 45/93/22 44/91/22 43/89/22
f 47/97/23 46/95/23 45/93/23
f 49/102/24 48/99/24 47/97/24
f 51/107/25 50/105/25 49/101/25
f 53/111/26 52/109/26 51/107/26
f 55/115/27 54/113/27 53/111/27
f 57/119/28 56/117/28 55/115/28
f 59/123/29 58/121/29 57/119/29
f 61/127/30 60/125/30 59/123/30
f 63/131/31 62/129/31 61/127/31
f 1/2/32 64/133/32 63/131/32
f 65/136/33 67/140/33 66/138/33
f 67/140/34 69/145/34 66/138/34
f 70/147/19 71/149/19 69/145/19
f 72/151/20 73/153/20 71/149/20
f 74/155/21 75/157/21 73/153/21
f 76/159/22 77/161/22 75/157/22
f 78/163/35 79/165/35 77/161/35
f 79/165/36 82/172/36 81/169/36
f 82/173/37 83/175/37 81/170/37
f 84/177/38 85/179/38 83/175/38
f 86/181/27 87/183/27 85/179/27
f 88/185/28 89/187/28 87/183/28
f 90/189/29 91/191/29 89/187/29
f 92/193/30 93/195/30 91/191/30
f 94/197/39 95/199/39 93/195/39
f 96/201/40 97/204/40 95/199/40
f 98/207/41 99/209/41 97/203/41
f 100/211/42 101/213/42 99/209/42
f 102/215/3 103/217/3 101/213/3
f 104/219/4 105/221/4 103/217/4
f 106/223/5 107/225/5 105/221/5
f 108/227/6 109/229/6 107/225/6
f 110/231/43 111/233/43 109/229/43
f 112/235/44 113/237/44 111/233/44
f 113/238/45 116/245/45 115/243/45
f 116/245/46 117/247/46 115/243/46
f 118/249/11 119/251/11 117/247/11
f 120/253/12 121/255/12 119/251/12
f 122/257/13 123/259/13 121/255/13
f 124/261/14 125/263/14 123/259/14
f 126/265/47 127/267/47 125/263/47
f 127/267/48 68/143/48 65/135/48
f 35/74/49 101/214/49 37/78/49
f 18/40/50 84/178/50 82/174/50
f 1/3/51 66/139/51 3/8/51
f 53/112/52 119/252/52 55/116/52
f 36/76/53 102/216/53 100/212/53
f 2/6/54 67/141/54 68/144/54
f 56/118/55 118/250/55 54/114/55
f 19/42/56 85/180/56 21/46/56
f 37/78/57 103/218/57 39/82/57
f 20/44/58 86/182/58 84/178/58
f 55/116/59 121/256/59 57/120/59
f 40/84/60 102/216/60 38/80/60
f 3/8/61 69/146/61 5/12/61
f 56/118/62 122/258/62 120/254/62
f 21/46/63 87/184/63 23/50/63
f 4/10/64 70/148/64 67/141/64
f 39/82/65 105/222/65 41/86/65
f 24/52/66 86/182/66 22/48/66
f 59/124/67 121/256/67 123/260/67
f 40/84/68 106/224/68 104/220/68
f 5/12/69 71/150/69 7/16/69
f 60/126/70 122/258/70 58/122/70
f 23/50/71 89/188/71 25/54/71
f 8/18/72 70/148/72 6/14/72
f 43/90/73 105/222/73 107/226/73
f 24/52/74 90/190/74 88/186/74
f 59/124/75 125/264/75 61/128/75
f 44/92/76 106/224/76 42/88/76
f 7/16/77 73/154/77 9/20/77
f 62/130/78 124/262/78 60/126/78
f 27/58/79 89/188/79 91/192/79
f 8/18/80 74/156/80 72/152/80
f 43/90/81 109/230/81 45/94/81
f 28/60/82 90/190/82 26/56/82
f 63/132/83 125/264/83 127/268/83
f 46/96/84 108/228/84 44/92/84
f 11/24/85 73/154/85 75/158/85
f 64/134/86 126/266/86 62/130/86
f 27/58/87 93/196/87 29/62/87
f 12/26/88 74/156/88 10/22/88
f 47/98/89 109/230/89 111/234/89
f 30/64/90 92/194/90 28/60/90
f 1/3/91 127/268/91 65/137/91
f 48/100/92 110/232/92 46/96/92
f 11/24/93 77/162/93 13/28/93
f 2/6/94 128/270/94 64/134/94
f 31/66/95 93/196/95 95/200/95
f 14/30/96 76/160/96 12/26/96
f 49/103/97 111/234/97 113/239/97
f 32/68/98 94/198/98 30/64/98
f 50/106/99 112/236/99 48/100/99
f 15/32/100 77/162/100 79/166/100
f 33/70/101 95/200/101 97/205/101
f 16/34/102 78/164/102 14/30/102
f 49/103/103 115/244/103 51/108/103
f 34/72/104 96/202/104 32/68/104
f 50/106/105 116/246/105 114/242/105
f 17/37/106 79/166/106 81/171/106
f 33/70/107 99/210/107 35/74/107
f 18/40/108 80/168/108 16/34/108
f 51/108/109 117/248/109 53/112/109
f 34/72/110 100/212/110 98/208/110
f 52/110/111 118/250/111 116/246/111
f 17/37/112 83/176/112 19/42/112
f 3/7/1 4/9/1 2/4/1
f 5/11/2 6/13/2 4/9/2
f 7/15/3 8/17/3 6/13/3
f 9/19/4 10/21/4 8/17/4
f 11/23/5 12/25/5 10/21/5
f 13/27/6 14/29/6 12/25/6
f 15/31/7 16/33/7 14/29/7
f 17/36/8 18/38/8 16/33/8
f 19/41/9 20/43/9 18/39/9
f 21/45/10 22/47/10 20/43/10
f 23/49/11 24/51/11 22/47/11
f 25/53/12 26/55/12 24/51/12
f 27/57/13 28/59/13 26/55/13
f 29/61/14 30/63/14 28/59/14
f 31/65/15 32/67/15 30/63/15
f 33/69/16 34/71/16 32/67/16
f 35/73/17 36/75/17 34/71/17
f 37/77/18 38/79/18 36/75/18
f 39/81/19 40/83/19 38/79/19
f 41/85/20 42/87/20 40/83/20
f 43/89/21 44/91/21 42/87/21
f 45/93/22 46/95/22 44/91/22
f 47/97/23 48/99/23 46/95/23
f 49/102/24 50/104/24 48/99/24
f 51/107/25 52/109/25 50/105/25
f 53/111/26 54/113/26 52/109/26
f 55/115/27 56/117/27 54/113/27
f 57/119/28 58/121/28 56/117/28
f 59/123/29 60/125/29 58/121/29
f 61/127/30 62/129/30 60/125/30
f 63/131/31 64/133/31 62/129/31
f 1/2/32 2/5/32 64/133/32
f 65/136/33 68/142/33 67/140/33
f 67/140/34 70/147/34 69/145/34
f 70/147/19 72/151/19 71/149/19
f 72/151/20 74/155/20 73/153/20
f 74/155/21 76/159/21 75/157/21
f 76/159/22 78/163/22 77/161/22
f 78/163/35 80/167/35 79/165/35
f 79/165/36 80/167/36 82/172/36
f 82/173/37 84/177/37 83/175/37
f 84/177/38 86/181/38 85/179/38
f 86/181/27 88/185/27 87/183/27
f 88/185/28 90/189/28 89/187/28
f 90/189/29 92/193/29 91/191/29
f 92/193/30 94/197/30 93/195/30
f 94/197/39 96/201/39 95/199/39
f 96/201/40 98/206/40 97/204/40
f 98/207/41 100/211/41 99/209/41
f 100/211/42 102/215/42 101/213/42
f 102/215/3 104/219/3 103/217/3
f 104/219/4 106/223/4 105/221/4
f 106/223/5 108/227/5 107/225/5
f 108/227/6 110/231/6 109/229/6
f 110/231/43 112/235/43 111/233/43
f 112/235/44 114/240/44 113/237/44
f 113/238/45 114/241/45 116/245/45
f 116/245/46 118/249/46 117/247/46
f 118/249/11 120/253/11 119/251/11
f 120/253/12 122/257/12 121/255/12
f 122/257/13 124/261/13 123/259/13
f 124/261/14 126/265/14 125/263/14
f 126/265/47 128/269/47 127/267/47
f 127/267/48 128/269/48 68/143/48
f 35/74/113 99/210/113 101/214/113
f 18/40/108 20/44/108 84/178/108
f 1/3/114 65/137/114 66/139/114
f 53/112/52 117/248/52 119/252/52
f 36/76/115 38/80/115 102/216/115
f 2/6/94 4/10/94 67/141/94
f 56/118/55 120/254/55 118/250/55
f 19/42/56 83/176/56 85/180/56
f 37/78/57 101/214/57 103/218/57
f 20/44/58 22/48/58 86/182/58
f 55/116/59 119/252/59 121/256/59
f 40/84/60 104/220/60 102/216/60
f 3/8/61 66/139/61 69/146/61
f 56/118/62 58/122/62 122/258/62
f 21/46/63 85/180/63 87/184/63
f 4/10/64 6/14/64 70/148/64
f 39/82/65 103/218/65 105/222/65
f 24/52/66 88/186/66 86/182/66
f 59/124/67 57/120/67 121/256/67
f 40/84/68 42/88/68 106/224/68
f 5/12/69 69/146/69 71/150/69
f 60/126/70 124/262/70 122/258/70
f 23/50/71 87/184/71 89/188/71
f 8/18/72 72/152/72 70/148/72
f 43/90/73 41/86/73 105/222/73
f 24/52/74 26/56/74 90/190/74
f 59/124/75 123/260/75 125/264/75
f 44/92/76 108/228/76 106/224/76
f 7/16/77 71/150/77 73/154/77
f 62/130/78 126/266/78 124/262/78
f 27/58/79 25/54/79 89/188/79
f 8/18/80 10/22/80 74/156/80
f 43/90/81 107/226/81 109/230/81
f 28/60/82 92/194/82 90/190/82
f 63/132/83 61/128/83 125/264/83
f 46/96/84 110/232/84 108/228/84
f 11/24/85 9/20/85 73/154/85
f 64/134/86 128/270/86 126/266/86
f 27/58/87 91/192/87 93/196/87
f 12/26/88 76/160/88 74/156/88
f 47/98/89 45/94/89 109/230/89
f 30/64/90 94/198/90 92/194/90
f 1/3/51 63/132/51 127/268/51
f 48/100/92 112/236/92 110/232/92
f 11/24/93 75/158/93 77/162/93
f 2/6/116 68/144/116 128/270/116
f 31/66/117 29/62/117 93/196/117
f 14/30/96 78/164/96 76/160/96
f 49/103/103 47/98/103 111/234/103
f 32/68/118 96/202/118 94/198/118
f 50/106/119 114/242/119 112/236/119
f 15/32/100 13/28/100 77/162/100
f 33/70/107 31/66/107 95/200/107
f 16/34/102 80/168/102 78/164/102
f 49/103/120 113/239/120 115/244/120
f 34/72/121 98/208/121 96/202/121
f 50/106/99 52/110/99 116/246/99
f 17/37/112 15/32/112 79/166/112
f 33/70/122 97/205/122 99/210/122
f 18/40/123 82/174/123 80/168/123
f 51/108/109 115/244/109 117/248/109
f 34/72/104 36/76/104 100/212/104
f 52/110/111 54/114/111 118/250/111
f 17/37/124 81/171/124 83/176/124
