# Blender 3.5.0
# www.blender.org
mtllib WallRantern.mtl
o WallRantarn
v 1.056246 1.473492 -0.498088
v 0.941240 0.515266 -0.328839
v 1.056246 1.473492 0.000000
v 0.941240 0.515266 0.000000
v 0.230595 1.473492 -0.498088
v 0.345602 0.515266 -0.328839
v 0.230595 1.473492 0.000000
v 0.345602 0.515266 0.000000
v 1.044261 1.396677 -0.405530
v 0.953225 0.586351 -0.271556
v 1.044261 1.396677 0.000000
v 0.953225 0.586351 0.000000
v 0.943351 1.408788 -0.405530
v 0.852315 0.598462 -0.271556
v 0.943351 1.408788 0.000000
v 0.852315 0.598462 0.000000
v 1.056246 1.529399 -0.498088
v 1.056246 1.529399 0.000000
v 0.230595 1.529399 -0.498088
v 0.230595 1.529399 0.000000
v 0.146886 1.467824 0.000000
v 0.146886 1.535068 0.000000
v 1.139956 1.467824 -0.571691
v 1.139956 1.467824 0.000000
v 0.146886 1.467824 -0.571691
v 1.139956 1.535068 -0.571691
v 1.139956 1.535068 0.000000
v 0.146886 1.535068 -0.571691
v 0.900835 1.790456 0.000000
v 0.386007 1.790456 0.000000
v 0.900835 1.790456 -0.352609
v 0.386007 1.790456 -0.352609
v 0.878082 1.872804 0.000000
v 0.408759 1.872804 0.000000
v 0.878082 1.872804 -0.337025
v 0.408759 1.872804 -0.337025
v 0.805551 1.872804 0.000000
v 0.481290 1.872804 0.000000
v 0.805551 1.872804 -0.284940
v 0.481290 1.872804 -0.284940
v 0.778631 2.092330 0.000000
v 0.508211 2.092330 0.000000
v 0.778631 2.092330 -0.208180
v 0.508211 2.092330 -0.208180
v 0.667377 2.092329 0.000000
v 0.619464 2.092329 0.000000
v 0.667377 2.092329 -0.036882
v 0.619464 2.092329 -0.036882
v 0.667377 2.503141 0.000000
v 0.619464 2.503141 0.000000
v 0.667377 2.503141 -0.036882
v 0.619464 2.503141 -0.036882
v 0.879974 0.585308 -0.346247
v 0.406867 0.585308 -0.346247
v 0.971323 1.403450 -0.480680
v 0.315519 1.403450 -0.480680
v 0.879974 0.595434 -0.284619
v 0.406867 0.595434 -0.284619
v 0.971323 1.413577 -0.419051
v 0.315519 1.413577 -0.419051
v 0.334662 0.573721 -0.272933
v 0.334662 0.573721 0.000000
v 0.241535 1.415037 0.000000
v 0.241535 1.415037 -0.391971
v 0.386951 0.578980 -0.272933
v 0.386951 0.578980 0.000000
v 0.293824 1.420297 0.000000
v 0.293824 1.420297 -0.391971
v 1.056246 1.473492 0.498088
v 0.941240 0.515266 0.328839
v 0.230595 1.473492 0.498088
v 0.345602 0.515266 0.328839
v 1.044261 1.396677 0.405530
v 0.953225 0.586351 0.271556
v 0.943351 1.408788 0.405530
v 0.852315 0.598462 0.271556
v 1.056246 1.529399 0.498088
v 0.230595 1.529399 0.498088
v 1.139956 1.467824 0.571691
v 0.146886 1.467824 0.571691
v 1.139956 1.535068 0.571691
v 0.146886 1.535068 0.571691
v 0.900835 1.790456 0.352609
v 0.386007 1.790456 0.352609
v 0.878082 1.872804 0.337025
v 0.408759 1.872804 0.337025
v 0.805551 1.872804 0.284940
v 0.481290 1.872804 0.284940
v 0.778631 2.092330 0.208180
v 0.508211 2.092330 0.208180
v 0.667377 2.092329 0.036882
v 0.619464 2.092329 0.036882
v 0.667377 2.503141 0.036882
v 0.619464 2.503141 0.036882
v 0.879974 0.585308 0.346247
v 0.406867 0.585308 0.346247
v 0.971323 1.403450 0.480680
v 0.315519 1.403450 0.480680
v 0.879974 0.595434 0.284619
v 0.406867 0.595434 0.284619
v 0.971323 1.413577 0.419051
v 0.315519 1.413577 0.419051
v 0.334662 0.573721 0.272933
v 0.241535 1.415037 0.391971
v 0.386951 0.578980 0.272933
v 0.293824 1.420297 0.391971
v 0.560281 0.204365 0.084974
v 0.560281 0.542612 0.084974
v 0.560281 0.204365 -0.084974
v 0.560281 0.542612 -0.084974
v 0.730230 0.204365 0.084974
v 0.730230 0.542612 0.084974
v 0.730230 0.204365 -0.084974
v 0.730230 0.542612 -0.084974
v 0.559406 0.202298 -0.084974
v 0.559406 0.202298 0.084974
v 0.676018 0.078668 -0.084974
v 0.676018 0.078668 0.084974
v 0.496427 0.157017 -0.084974
v 0.496427 0.157017 0.084974
v 0.537943 -0.007784 -0.084974
v 0.537943 -0.007784 0.084974
v 0.216989 0.086623 -0.084974
v 0.216989 0.086623 0.084974
v 0.258504 -0.078178 -0.084974
v 0.258504 -0.078178 0.084974
v 0.140020 0.064783 -0.084974
v 0.140020 0.064783 0.084974
v 0.141671 -0.105158 -0.084974
v 0.141671 -0.105158 0.084974
v 0.130086 0.202118 -0.222400
v 0.130086 0.202118 0.222400
v 0.134407 -0.242661 -0.222400
v 0.134407 -0.242661 0.222400
v 0.088678 0.253028 -0.273312
v 0.088678 0.253028 0.273312
v 0.093987 -0.293572 -0.273312
v 0.093987 -0.293572 0.273312
v -0.113352 0.252210 -0.273312
v -0.113352 0.252210 0.273312
v -0.108043 -0.294389 -0.273312
v -0.108043 -0.294389 0.273312
vn -0.0676 -0.9977 -0.0000
vn -0.0000 0.9970 0.0768
vn -0.9829 -0.1840 -0.0000
vn -0.0000 -1.0000 -0.0000
vn 0.9910 -0.1208 -0.0574
vn -0.0648 -0.1660 -0.9840
vn 0.1192 0.9929 -0.0000
vn 0.9861 -0.1663 -0.0000
vn 0.9880 -0.1542 -0.0000
vn -0.8593 0.5115 -0.0000
vn 0.9937 -0.1116 -0.0000
vn 0.0676 -0.9977 -0.0000
vn -0.1192 -0.9929 -0.0000
vn 0.0193 0.1610 0.9868
vn -1.0000 -0.0000 -0.0000
vn 1.0000 -0.0000 -0.0000
vn -0.0000 -0.0000 -1.0000
vn -0.0000 -0.9970 0.0768
vn 0.0676 0.9977 -0.0000
vn -0.0676 0.9977 -0.0000
vn -0.9639 0.2663 -0.0000
vn 0.8593 0.5115 -0.0000
vn -0.0000 0.4868 -0.8735
vn -0.0000 1.0000 -0.0000
vn -0.0000 0.1859 -0.9826
vn 0.9639 0.2663 -0.0000
vn -0.9926 0.1217 -0.0000
vn -0.0000 0.3301 -0.9440
vn 0.9926 0.1217 -0.0000
vn -0.0000 -0.9868 0.1621
vn -0.0838 -0.1707 -0.9818
vn -0.0000 -0.2412 -0.9705
vn -0.0000 -0.1621 -0.9868
vn -0.9940 0.1081 -0.0178
vn 0.9940 0.1081 -0.0178
vn -0.0000 0.9868 -0.1621
vn -0.0139 0.1386 0.9903
vn -0.9929 -0.1120 0.0407
vn -0.9939 -0.1100 -0.0000
vn -0.1001 0.9950 -0.0000
vn 0.1001 -0.9950 -0.0000
vn -0.0000 0.9970 -0.0768
vn 0.9930 -0.1130 -0.0348
vn -0.0648 -0.1660 0.9840
vn 0.0193 0.1610 -0.9868
vn -0.0000 -0.0000 1.0000
vn -0.0000 -0.9970 -0.0768
vn -0.0000 0.4868 0.8735
vn -0.0000 0.1859 0.9826
vn -0.0000 0.3301 0.9440
vn -0.0000 -0.9868 -0.1621
vn 0.0648 -0.1660 0.9840
vn -0.0000 -0.2412 0.9705
vn -0.0000 -0.1621 0.9868
vn -0.9940 0.1081 0.0178
vn 0.9940 0.1081 0.0178
vn -0.0000 0.9868 0.1621
vn -0.0139 0.1386 -0.9903
vn -0.9929 -0.1120 -0.0407
vn -0.9209 0.3899 -0.0000
vn 0.5307 -0.8476 -0.0000
vn 0.9182 -0.3960 -0.0000
vn -0.5838 0.8119 -0.0000
vn 0.2250 -0.9744 -0.0000
vn 0.2443 -0.9697 -0.0000
vn -0.2443 0.9697 -0.0000
vn 0.9986 -0.0528 -0.0000
vn -0.2730 0.9620 -0.0000
vn 0.7758 0.6310 -0.0000
vn 0.9974 0.0721 -0.0000
vn 0.9980 0.0097 0.0625
vn 0.9980 0.0097 -0.0625
vn 0.7795 0.0076 0.6264
vn 0.7795 0.0076 -0.6264
vn 0.7832 -0.6218 -0.0000
vn -1.0000 -0.0097 -0.0000
vn 0.0040 -1.0000 -0.0000
vn -0.0040 1.0000 -0.0000
vn 0.9930 -0.1130 0.0348
vn 0.0838 -0.1707 -0.9818
vn 0.0648 -0.1660 -0.9840
vn -0.9904 -0.1194 -0.0690
vn 0.9910 -0.1208 0.0574
vn 0.0838 -0.1707 0.9818
vn -0.0838 -0.1707 0.9818
vn -0.9904 -0.1194 0.0690
vt 0.024474 0.268124
vt 0.753580 0.004995
vt 0.287874 0.413431
vt 0.395677 0.980944
vt 0.521786 0.470301
vt 0.516488 0.046993
vt 0.024474 0.145104
vt 0.753580 0.128593
vt 0.314564 0.980944
vt 0.516488 0.128593
vt 0.228094 0.268124
vt 0.263403 0.617570
vt 0.498410 0.715756
vt 0.395677 0.834238
vt 0.504133 0.617570
vt 0.540560 0.479006
vt 0.228094 0.145104
vt 0.622454 0.715756
vt 0.622454 0.479006
vt 0.314564 0.834238
vt 0.850865 0.647956
vt 0.734589 0.027963
vt 0.854838 0.004148
vt 0.854838 0.206763
vt 0.625719 0.854028
vt 0.534057 0.061208
vt 0.734589 0.128593
vt 0.850865 0.547238
vt 0.625719 0.921271
vt 0.534057 0.128593
vt 0.854459 0.692867
vt 0.875726 0.647956
vt 0.880020 0.003951
vt 0.650655 0.854028
vt 0.662492 0.758315
vt 0.880020 0.206566
vt 0.870881 0.791921
vt 0.875726 0.547238
vt 0.650655 0.921271
vt 0.673488 0.824646
vt 0.848117 0.218344
vt 0.280795 0.022073
vt 0.007813 0.444126
vt 0.280795 0.145009
vt 0.138042 0.444126
vt 0.527588 0.400787
vt 0.484553 0.022073
vt 0.848117 0.434331
vt 0.484553 0.145009
vt 0.398356 0.400787
vt 0.248815 0.145104
vt 0.144921 0.314164
vt 0.144921 0.297602
vt 0.505188 0.145009
vt 0.721720 0.506961
vt 0.003906 0.342036
vt 0.003906 0.286303
vt 0.144835 0.342036
vt 0.003906 0.145104
vt 0.285935 0.314164
vt 0.721720 0.262180
vt 0.248815 0.286303
vt 0.260114 0.003906
vt 0.003906 0.325464
vt 0.738294 0.506961
vt 0.144835 0.325464
vt 0.260114 0.145009
vt 0.285935 0.297602
vt 0.738294 0.262180
vt 0.505188 0.003906
vt 0.138042 0.374992
vt 0.398356 0.330982
vt 0.780205 0.258987
vt 0.045850 0.374992
vt 0.489843 0.330982
vt 0.780205 0.393664
vt 0.138042 0.353336
vt 0.550747 0.727056
vt 0.398356 0.309330
vt 0.550747 0.842728
vt 0.758704 0.264937
vt 0.049924 0.353336
vt 0.633823 0.727056
vt 0.485799 0.309330
vt 0.758704 0.387710
vt 0.633823 0.842728
vt 0.550747 0.744932
vt 0.406977 0.906952
vt 0.550747 0.824852
vt 0.634001 0.127691
vt 0.661955 0.985422
vt 0.620984 0.744932
vt 0.406977 0.836543
vt 0.634001 0.057376
vt 0.620984 0.824852
vt 0.661955 0.903014
vt 0.461355 0.906952
vt 0.309350 0.532734
vt 0.579550 0.127691
vt 0.375999 0.532734
vt 0.717549 0.978587
vt 0.461355 0.855510
vt 0.309350 0.481418
vt 0.579550 0.076318
vt 0.375999 0.481418
vt 0.717549 0.909862
vt 0.396391 0.474381
vt 0.336770 0.532734
vt 0.348579 0.532734
vt 0.425879 0.486088
vt 0.177026 0.976504
vt 0.336770 0.523643
vt 0.405483 0.474381
vt 0.416782 0.486088
vt 0.165216 0.976504
vt 0.348579 0.523643
vt 0.003906 0.362427
vt 0.396391 0.575627
vt 0.015715 0.362427
vt 0.425879 0.587273
vt 0.003906 0.353336
vt 0.177026 0.875248
vt 0.405483 0.575627
vt 0.165216 0.875248
vt 0.015715 0.353336
vt 0.416782 0.587273
vt 0.030499 0.992648
vt 0.502611 0.483369
vt 0.195233 0.033387
vt 0.488589 0.600343
vt 0.764880 0.209114
vt 0.030499 0.875263
vt 0.195233 0.238825
vt 0.080885 0.658321
vt 0.302716 0.436508
vt 0.080885 0.495717
vt 0.283280 0.598652
vt 0.764880 0.003913
vt 0.578828 0.247109
vt 0.210640 0.033395
vt 0.045791 0.992689
vt 0.695405 0.260110
vt 0.780304 0.209109
vt 0.045791 0.875304
vt 0.065582 0.658458
vt 0.533810 0.446513
vt 0.210640 0.238833
vt 0.065582 0.495854
vt 0.695405 0.464535
vt 0.780304 0.003908
vt 0.534101 0.226158
vt 0.146608 0.033566
vt 0.554483 0.493396
vt 0.622454 0.493396
vt 0.534101 0.293550
vt 0.841088 0.100571
vt 0.622454 0.701366
vt 0.146608 0.243475
vt 0.524837 0.701366
vt 0.841088 0.197237
vt 0.159609 0.033440
vt 0.460957 0.688835
vt 0.521171 0.226158
vt 0.451399 0.755887
vt 0.521171 0.293550
vt 0.246242 0.726642
vt 0.828141 0.100571
vt 0.159609 0.243349
vt 0.259968 0.630346
vt 0.828141 0.197237
vt 0.753580 0.252191
vt 0.024474 0.022085
vt 0.208623 0.689338
vt 0.233450 0.980944
vt 0.516488 0.210193
vt 0.151592 0.455984
vt 0.003906 0.714003
vt 0.746499 0.715756
vt 0.228094 0.022085
vt 0.233450 0.834238
vt 0.003906 0.473778
vt 0.704349 0.479006
vt 0.850865 0.446519
vt 0.734589 0.229223
vt 0.816842 0.004133
vt 0.816842 0.206296
vt 0.625719 0.988514
vt 0.534057 0.195978
vt 0.887302 0.890976
vt 0.875726 0.446519
vt 0.791603 0.003948
vt 0.650655 0.988514
vt 0.684485 0.890976
vt 0.791603 0.206111
vt 0.268270 0.444126
vt 0.749593 0.397382
vt 0.280795 0.267945
vt 0.269123 0.400787
vt 0.484553 0.267945
vt 0.749593 0.611913
vt 0.237846 0.700220
vt 0.285765 0.342036
vt 0.003906 0.003906
vt 0.003906 0.314164
vt 0.237846 0.455425
vt 0.248815 0.003906
vt 0.285765 0.325464
vt 0.221273 0.700220
vt 0.260114 0.286112
vt 0.003906 0.297602
vt 0.221273 0.455425
vt 0.505188 0.286112
vt 0.230234 0.374992
vt 0.818099 0.437752
vt 0.306869 0.330982
vt 0.818099 0.571521
vt 0.467671 0.727056
vt 0.839565 0.443663
vt 0.226159 0.353336
vt 0.310912 0.309330
vt 0.839565 0.565608
vt 0.467671 0.842728
vt 0.835127 0.684507
vt 0.406977 0.977361
vt 0.480509 0.744932
vt 0.634001 0.198006
vt 0.480509 0.824852
vt 0.835127 0.602497
vt 0.309350 0.584051
vt 0.779263 0.677704
vt 0.461355 0.958393
vt 0.579550 0.179063
vt 0.375999 0.584051
vt 0.779263 0.609311
vt 0.188325 0.976498
vt 0.336770 0.541826
vt 0.387299 0.474381
vt 0.434977 0.486088
vt 0.200136 0.976498
vt 0.348579 0.541826
vt 0.003906 0.371518
vt 0.188325 0.875248
vt 0.387299 0.575627
vt 0.200136 0.875248
vt 0.015715 0.371518
vt 0.434977 0.587273
vt 0.003906 0.875304
vt 0.138483 0.475100
vt 0.402930 0.238820
vt 0.021178 0.489233
vt 0.429636 0.033374
vt 0.003906 0.992689
vt 0.402930 0.033382
vt 0.051516 0.499630
vt 0.185485 0.674589
vt 0.051516 0.662235
vt 0.429636 0.238576
vt 0.022881 0.694180
vt 0.004434 0.747103
vt 0.418336 0.238813
vt 0.019199 0.875263
vt 0.017528 0.863949
vt 0.445059 0.033379
vt 0.019199 0.992648
vt 0.036213 0.499494
vt 0.203332 0.701981
vt 0.418336 0.033375
vt 0.036213 0.662098
vt 0.221483 0.863949
vt 0.445059 0.238580
vt 0.534101 0.360943
vt 0.170908 0.242952
vt 0.690426 0.493396
vt 0.170908 0.033442
vt 0.720071 0.701366
vt 0.841088 0.003906
vt 0.183934 0.243084
vt 0.441841 0.822939
vt 0.521171 0.360943
vt 0.183934 0.033574
vt 0.232515 0.822939
vt 0.828141 0.003906
vt 0.770777 0.902796
vt 0.349480 0.162163
vt 0.770777 0.986124
vt 0.294418 0.224756
vt 0.486022 0.670762
vt 0.093159 0.125975
vt 0.728849 0.902796
vt 0.728849 0.986124
vt 0.038098 0.063375
vt 0.486022 0.628869
vt 0.057091 0.906340
vt 0.380935 0.189832
vt 0.057091 0.990811
vt 0.325873 0.252426
vt 0.444135 0.670762
vt 0.099542 0.906340
vt 0.124613 0.098309
vt 0.444135 0.628869
vt 0.069552 0.035708
vt 0.099542 0.990811
vt 0.728849 0.902275
vt 0.093333 0.126500
vt 0.110842 0.982094
vt 0.153916 0.982094
vt 0.770777 0.902275
vt 0.349655 0.161638
vt 0.137885 0.664143
vt 0.099542 0.875248
vt 0.135041 0.130398
vt 0.094952 0.664143
vt 0.057091 0.875248
vt 0.391363 0.157745
vt 0.089048 0.145133
vt 0.110842 0.965948
vt 0.153916 0.965948
vt 0.345370 0.143005
vt 0.137885 0.628125
vt 0.123559 0.168875
vt 0.379881 0.119267
vt 0.094952 0.628125
vt 0.048788 0.203652
vt 0.110842 0.894843
vt 0.153916 0.894843
vt 0.305109 0.084482
vt 0.137885 0.556669
vt 0.083299 0.227394
vt 0.094952 0.556669
vt 0.339620 0.060744
vt 0.110842 0.875248
vt 0.038098 0.220224
vt 0.565575 0.946680
vt 0.153916 0.875248
vt 0.294418 0.067909
vt 0.521499 0.946680
vt 0.137885 0.526827
vt 0.066067 0.251407
vt 0.565575 0.902608
vt 0.322388 0.036730
vt 0.094952 0.526827
vt 0.521499 0.902608
vt 0.601216 0.982346
vt 0.485858 0.982346
vt 0.601216 0.866997
vt 0.485858 0.866997
vt 0.614420 0.995782
vt 0.565034 0.639458
vt 0.933333 0.793994
vt 0.933333 0.659256
vt 0.675932 0.639450
vt 0.472654 0.995782
vt 0.699803 0.054293
vt 0.614420 0.854028
vt 0.565034 0.504727
vt 0.675932 0.504727
vt 0.472654 0.854028
vt 0.699803 0.189113
vt 0.996094 0.352924
vt 0.614832 0.639740
vt 0.883538 0.793994
vt 0.626131 0.639732
vt 0.996094 0.218054
vt 0.883538 0.659256
vt 0.861496 0.352924
vt 0.614832 0.505009
vt 0.650037 0.054293
vt 0.626131 0.505010
vt 0.861496 0.218054
vt 0.650037 0.189113
s 0
usemtl Material.001
f 1/1/1 24/59/1 3/7/1
f 17/42/2 28/70/2 19/47/2
f 8/19/3 61/153/3 6/16/3
f 2/4/4 8/20/4 6/14/4
f 2/6/5 9/22/5 10/26/5
f 2/5/6 55/135/6 1/3/6
f 10/25/7 16/39/7 12/29/7
f 4/10/8 10/26/8 12/30/8
f 3/8/9 9/22/9 1/2/9
f 20/50/10 32/75/10 19/46/10
f 14/35/11 15/37/11 16/40/11
f 5/11/12 21/51/12 25/62/12
f 11/28/13 13/32/13 9/21/13
f 9/23/14 14/36/14 10/24/14
f 21/52/15 28/68/15 25/60/15
f 23/56/16 27/66/16 24/58/16
f 25/61/17 26/65/17 23/55/17
f 5/11/18 23/57/18 1/1/18
f 19/47/19 22/54/19 20/49/19
f 17/42/20 27/67/20 26/63/20
f 30/72/21 36/84/21 32/75/21
f 18/45/22 31/74/22 29/71/22
f 19/48/23 31/73/23 17/41/23
f 34/80/24 40/95/24 36/86/24
f 32/76/25 35/81/25 31/73/25
f 29/71/26 35/82/26 33/77/26
f 38/90/27 44/104/27 40/94/27
f 36/86/24 39/92/24 35/83/24
f 33/78/24 39/92/24 37/87/24
f 44/105/24 47/112/24 43/103/24
f 40/96/28 43/101/28 39/91/28
f 37/88/29 43/102/29 41/97/29
f 48/115/17 51/122/17 47/111/17
f 41/98/24 47/112/24 45/108/24
f 42/100/24 48/116/24 44/105/24
f 52/125/24 49/117/24 51/121/24
f 47/113/16 49/118/16 45/107/16
f 46/110/15 52/126/15 48/114/15
f 55/134/30 60/148/30 56/136/30
f 6/15/31 56/137/31 54/130/31
f 6/15/32 53/128/32 2/5/32
f 1/3/32 56/137/32 5/12/32
f 60/149/33 57/139/33 58/142/33
f 53/129/34 59/147/34 55/133/34
f 54/131/35 60/150/35 58/143/35
f 54/132/36 57/141/36 53/127/36
f 61/152/37 68/168/37 64/158/37
f 7/18/3 64/159/3 63/157/3
f 6/16/38 64/159/38 5/13/38
f 67/166/39 65/162/39 66/164/39
f 62/155/40 65/163/40 61/151/40
f 64/160/41 67/167/41 63/156/41
f 24/59/1 69/172/1 3/7/1
f 82/212/42 77/197/42 78/199/42
f 103/273/3 8/19/3 72/182/3
f 8/20/4 70/174/4 72/180/4
f 70/175/43 73/184/43 69/171/43
f 97/255/44 70/176/44 69/173/44
f 16/39/7 74/187/7 12/29/7
f 4/10/8 74/188/8 70/175/8
f 73/184/9 3/8/9 69/171/9
f 84/215/10 20/50/10 78/198/10
f 76/193/11 15/37/11 75/189/11
f 71/179/12 21/51/12 7/17/12
f 75/190/13 11/28/13 73/183/13
f 76/194/45 73/185/45 74/186/45
f 82/210/15 21/52/15 80/204/15
f 27/66/16 79/202/16 24/58/16
f 81/208/46 80/205/46 79/201/46
f 69/172/47 80/206/47 71/179/47
f 22/54/19 78/199/19 20/49/19
f 77/197/20 27/67/20 18/44/20
f 86/220/21 30/72/21 84/215/21
f 18/45/22 83/213/22 77/195/22
f 83/214/48 78/200/48 77/196/48
f 88/227/24 34/80/24 86/222/24
f 85/218/49 84/216/49 83/214/49
f 29/71/26 85/219/26 83/213/26
f 90/232/27 38/90/27 88/226/27
f 87/225/24 86/222/24 85/217/24
f 33/78/24 87/225/24 85/217/24
f 91/236/24 90/233/24 89/229/24
f 89/230/50 88/228/50 87/223/50
f 37/88/29 89/231/29 87/224/29
f 93/242/46 92/239/46 91/235/46
f 41/98/24 91/236/24 89/229/24
f 92/240/24 42/100/24 90/233/24
f 49/117/24 94/245/24 93/241/24
f 49/118/16 91/237/16 45/107/16
f 94/246/15 46/110/15 92/238/15
f 102/268/51 97/254/51 98/256/51
f 72/181/52 98/258/52 71/177/52
f 95/248/53 72/181/53 70/176/53
f 98/258/53 69/173/53 71/177/53
f 99/259/54 102/269/54 100/262/54
f 101/267/55 95/249/55 97/253/55
f 96/251/56 102/270/56 98/257/56
f 99/261/57 96/252/57 95/247/57
f 106/280/58 103/272/58 104/274/58
f 7/18/3 104/275/3 71/178/3
f 104/275/59 72/182/59 71/178/59
f 105/278/39 67/166/39 66/164/39
f 105/279/40 62/155/40 103/271/40
f 67/167/41 104/276/41 63/156/41
f 108/285/15 109/289/15 107/283/15
f 110/291/17 113/299/17 109/288/17
f 114/302/16 111/293/16 113/298/16
f 112/296/46 107/284/46 111/294/46
f 109/289/60 116/307/60 107/283/60
f 110/292/24 112/297/24 114/300/24
f 118/312/61 121/319/61 117/309/61
f 111/293/62 117/310/62 113/298/62
f 111/294/46 116/308/46 118/314/46
f 113/299/17 115/304/17 109/288/17
f 120/318/46 126/330/46 122/321/46
f 115/305/63 120/317/63 116/306/63
f 118/314/46 120/318/46 122/321/46
f 117/311/17 119/315/17 115/304/17
f 126/329/64 129/337/64 125/327/64
f 119/315/17 125/328/17 123/323/17
f 122/322/65 125/327/65 121/319/65
f 119/316/66 124/325/66 120/317/66
f 130/342/67 133/345/67 129/339/67
f 123/324/68 128/334/68 124/325/68
f 126/330/46 128/335/46 130/340/46
f 125/328/17 127/332/17 123/323/17
f 131/343/69 136/352/69 132/344/69
f 127/333/70 132/344/70 128/336/70
f 130/342/71 132/344/71 134/346/71
f 129/339/72 131/343/72 127/333/72
f 136/351/46 142/368/46 138/356/46
f 132/344/73 138/357/73 134/346/73
f 131/343/74 137/354/74 135/347/74
f 134/346/75 137/354/75 133/345/75
f 141/365/76 140/363/76 139/359/76
f 135/348/17 141/366/17 139/360/17
f 138/358/77 141/367/77 137/353/77
f 135/349/78 140/364/78 136/350/78
f 1/1/1 23/57/1 24/59/1
f 17/42/2 26/63/2 28/70/2
f 8/19/3 62/154/3 61/153/3
f 2/4/4 4/9/4 8/20/4
f 2/6/79 1/2/79 9/22/79
f 2/5/80 53/128/80 55/135/80
f 10/25/7 14/34/7 16/39/7
f 4/10/8 2/6/8 10/26/8
f 3/8/9 11/27/9 9/22/9
f 20/50/10 30/72/10 32/75/10
f 14/35/11 13/31/11 15/37/11
f 5/11/12 7/17/12 21/51/12
f 11/28/13 15/38/13 13/32/13
f 9/23/14 13/33/14 14/36/14
f 21/52/15 22/53/15 28/68/15
f 23/56/16 26/64/16 27/66/16
f 25/61/17 28/69/17 26/65/17
f 5/11/18 25/62/18 23/57/18
f 19/47/19 28/70/19 22/54/19
f 17/42/20 18/44/20 27/67/20
f 30/72/21 34/79/21 36/84/21
f 18/45/22 17/43/22 31/74/22
f 19/48/23 32/76/23 31/73/23
f 34/80/24 38/89/24 40/95/24
f 32/76/25 36/85/25 35/81/25
f 29/71/26 31/74/26 35/82/26
f 38/90/27 42/99/27 44/104/27
f 36/86/24 40/95/24 39/92/24
f 33/78/24 35/83/24 39/92/24
f 44/105/24 48/116/24 47/112/24
f 40/96/28 44/106/28 43/101/28
f 37/88/29 39/93/29 43/102/29
f 48/115/17 52/124/17 51/122/17
f 41/98/24 43/103/24 47/112/24
f 42/100/24 46/109/24 48/116/24
f 52/125/24 50/119/24 49/117/24
f 47/113/16 51/123/16 49/118/16
f 46/110/15 50/120/15 52/126/15
f 55/134/30 59/145/30 60/148/30
f 6/15/81 5/12/81 56/137/81
f 6/15/32 54/130/32 53/128/32
f 1/3/32 55/135/32 56/137/32
f 60/149/33 59/146/33 57/139/33
f 53/129/34 57/140/34 59/147/34
f 54/131/35 56/138/35 60/150/35
f 54/132/36 58/144/36 57/141/36
f 61/152/37 65/161/37 68/168/37
f 7/18/3 5/13/3 64/159/3
f 6/16/82 61/153/82 64/159/82
f 67/166/39 68/169/39 65/162/39
f 62/155/40 66/165/40 65/163/40
f 64/160/41 68/170/41 67/167/41
f 24/59/1 79/203/1 69/172/1
f 82/212/42 81/209/42 77/197/42
f 103/273/3 62/154/3 8/19/3
f 8/20/4 4/9/4 70/174/4
f 70/175/83 74/188/83 73/184/83
f 97/255/84 95/248/84 70/176/84
f 16/39/7 76/192/7 74/187/7
f 4/10/8 12/30/8 74/188/8
f 73/184/9 11/27/9 3/8/9
f 84/215/10 30/72/10 20/50/10
f 76/193/11 16/40/11 15/37/11
f 71/179/12 80/206/12 21/51/12
f 75/190/13 15/38/13 11/28/13
f 76/194/45 75/191/45 73/185/45
f 82/210/15 22/53/15 21/52/15
f 27/66/16 81/207/16 79/202/16
f 81/208/46 82/211/46 80/205/46
f 69/172/47 79/203/47 80/206/47
f 22/54/19 82/212/19 78/199/19
f 77/197/20 81/209/20 27/67/20
f 86/220/21 34/79/21 30/72/21
f 18/45/22 29/71/22 83/213/22
f 83/214/48 84/216/48 78/200/48
f 88/227/24 38/89/24 34/80/24
f 85/218/49 86/221/49 84/216/49
f 29/71/26 33/77/26 85/219/26
f 90/232/27 42/99/27 38/90/27
f 87/225/24 88/227/24 86/222/24
f 33/78/24 37/87/24 87/225/24
f 91/236/24 92/240/24 90/233/24
f 89/230/50 90/234/50 88/228/50
f 37/88/29 41/97/29 89/231/29
f 93/242/46 94/244/46 92/239/46
f 41/98/24 45/108/24 91/236/24
f 92/240/24 46/109/24 42/100/24
f 49/117/24 50/119/24 94/245/24
f 49/118/16 93/243/16 91/237/16
f 94/246/15 50/120/15 46/110/15
f 102/268/51 101/265/51 97/254/51
f 72/181/85 96/250/85 98/258/85
f 95/248/53 96/250/53 72/181/53
f 98/258/53 97/255/53 69/173/53
f 99/259/54 101/266/54 102/269/54
f 101/267/55 99/260/55 95/249/55
f 96/251/56 100/263/56 102/270/56
f 99/261/57 100/264/57 96/252/57
f 106/280/58 105/277/58 103/272/58
f 7/18/3 63/157/3 104/275/3
f 104/275/86 103/273/86 72/182/86
f 105/278/39 106/281/39 67/166/39
f 105/279/40 66/165/40 62/155/40
f 67/167/41 106/282/41 104/276/41
f 108/285/15 110/290/15 109/289/15
f 110/291/17 114/301/17 113/299/17
f 114/302/16 112/295/16 111/293/16
f 112/296/46 108/286/46 107/284/46
f 109/289/60 115/303/60 116/307/60
f 110/292/24 108/287/24 112/297/24
f 118/312/61 122/322/61 121/319/61
f 111/293/62 118/313/62 117/310/62
f 111/294/46 107/284/46 116/308/46
f 113/299/17 117/311/17 115/304/17
f 120/318/46 124/326/46 126/330/46
f 115/305/63 119/316/63 120/317/63
f 118/314/46 116/308/46 120/318/46
f 117/311/17 121/320/17 119/315/17
f 126/329/64 130/341/64 129/337/64
f 119/315/17 121/320/17 125/328/17
f 122/322/65 126/329/65 125/327/65
f 119/316/66 123/324/66 124/325/66
f 130/342/67 134/346/67 133/345/67
f 123/324/68 127/331/68 128/334/68
f 126/330/46 124/326/46 128/335/46
f 125/328/17 129/338/17 127/332/17
f 131/343/69 135/347/69 136/352/69
f 127/333/70 131/343/70 132/344/70
f 130/342/71 128/336/71 132/344/71
f 129/339/72 133/345/72 131/343/72
f 136/351/46 140/362/46 142/368/46
f 132/344/73 136/352/73 138/357/73
f 131/343/74 133/345/74 137/354/74
f 134/346/75 138/357/75 137/354/75
f 141/365/76 142/369/76 140/363/76
f 135/348/17 137/355/17 141/366/17
f 138/358/77 142/370/77 141/367/77
f 135/349/78 139/361/78 140/364/78
