# Blender 3.5.0
# www.blender.org
mtllib grave_cross.mtl
o Cube
v 0.609483 0.117922 -0.927029
v 0.614646 -0.197663 -0.924385
v -0.708932 0.117424 -0.932911
v -0.694164 -0.207808 -0.927928
v 0.617717 0.130069 0.000000
v 0.612488 -0.203284 0.000000
v -0.704483 0.118182 0.000000
v -0.689715 -0.199783 0.000000
v -0.214427 0.122588 0.000000
v -0.219179 0.117600 -0.930841
v -0.604718 0.119079 0.000000
v -0.606053 0.117461 -0.932476
v -0.218712 0.118090 -0.846231
v -0.605938 0.117600 -0.852455
v -0.278227 0.478985 0.000000
v -0.611816 0.483498 0.000000
v -0.282513 0.382722 -0.772686
v -0.613036 0.390254 -0.778910
v -0.524598 0.482318 0.000000
v -0.373122 0.480268 0.000000
v -0.522738 0.454398 -0.224377
v -0.372122 0.452203 -0.225030
v -0.498492 1.815548 0.000000
v -0.383415 1.821836 0.000000
v -0.490300 1.822070 -0.126574
v -0.389323 1.821402 -0.126773
v -0.496736 2.067461 0.000000
v -0.381842 2.070192 0.000000
v -0.488748 2.066966 -0.121021
v -0.387772 2.066297 -0.121220
v -0.507390 1.798263 -0.699560
v -0.374361 1.797382 -0.699823
v -0.505347 2.120896 -0.692244
v -0.372317 2.120015 -0.692507
v -0.499769 2.631905 0.000000
v -0.372709 2.631526 0.000000
v -0.490943 2.631704 -0.174127
v -0.379363 2.631346 -0.174234
v 0.609483 0.117922 0.927029
v 0.614646 -0.197663 0.924385
v -0.708932 0.117424 0.932911
v -0.694164 -0.207808 0.927928
v -0.219179 0.117600 0.930841
v -0.606053 0.117461 0.932476
v -0.218712 0.118090 0.846231
v -0.605938 0.117600 0.852455
v -0.282513 0.382722 0.772686
v -0.613036 0.390254 0.778910
v -0.522738 0.454398 0.224377
v -0.372122 0.452203 0.225030
v -0.490300 1.822070 0.126574
v -0.389323 1.821402 0.126773
v -0.488748 2.066966 0.121021
v -0.387772 2.066297 0.121220
v -0.507390 1.798263 0.699560
v -0.374361 1.797382 0.699823
v -0.505347 2.120896 0.692244
v -0.372317 2.120015 0.692507
v -0.490943 2.631704 0.174127
v -0.379363 2.631346 0.174234
vn 0.0042 -0.0093 -0.9999
vn -0.0000 -0.0000 -1.0000
vn -0.9990 -0.0453 0.0048
vn 0.0077 -0.9999 0.0086
vn -0.0090 1.0000 -0.0017
vn 0.9998 0.0163 -0.0091
vn -0.0085 0.9999 -0.0057
vn 0.0249 0.9922 -0.1218
vn -0.0012 1.0000 -0.0058
vn -0.9996 -0.0264 0.0015
vn 0.0151 0.2711 -0.9624
vn 0.9717 0.2360 -0.0062
vn 0.9989 0.0077 -0.0466
vn 0.9988 -0.0063 -0.0487
vn -0.9996 0.0245 -0.0113
vn -0.0033 0.0715 -0.9974
vn -0.0013 -0.0934 -0.9956
vn -0.9978 0.0078 -0.0659
vn -0.9995 0.0057 0.0296
vn -0.0018 0.0227 -0.9997
vn -0.0065 -0.9991 0.0417
vn 0.9996 -0.0069 0.0264
vn 0.0068 0.9956 0.0938
vn 0.0030 1.0000 -0.0010
vn 0.9987 -0.0162 -0.0483
vn -0.9987 -0.0086 -0.0506
vn 0.0042 -0.0093 0.9999
vn -0.9989 -0.0464 -0.0052
vn -0.0027 -1.0000 0.0061
vn -0.0090 1.0000 0.0017
vn 0.9998 0.0163 0.0091
vn -0.0011 0.9999 0.0131
vn 0.0249 0.9926 0.1189
vn -0.0012 1.0000 0.0058
vn -0.9998 -0.0195 -0.0039
vn 0.0241 0.2609 0.9651
vn 0.9717 0.2360 0.0062
vn 0.9999 0.0124 -0.0029
vn 0.9989 -0.0053 0.0465
vn -0.9996 0.0245 0.0113
vn -0.0033 0.0715 0.9974
vn -0.0026 -0.0936 0.9956
vn -0.9979 0.0070 0.0642
vn -0.9995 0.0057 -0.0296
vn -0.0018 0.0227 0.9997
vn -0.0065 -0.9991 -0.0417
vn 0.9996 -0.0069 -0.0264
vn 0.0068 0.9956 -0.0938
vn 0.0032 1.0000 0.0012
vn 0.9987 -0.0162 0.0483
vn -0.9978 -0.0054 0.0658
vn 0.0028 -0.0152 -0.9999
vn 0.0046 -0.0083 -1.0000
vn -0.9989 -0.0464 0.0052
vn -0.0027 -1.0000 -0.0061
vn -0.0004 1.0000 -0.0008
vn 0.9999 -0.0157 0.0022
vn -0.0090 0.9999 -0.0053
vn -0.0003 0.9999 -0.0131
vn 0.0134 0.9928 -0.1189
vn 0.0507 0.9911 -0.1229
vn 0.0134 0.9922 -0.1237
vn 0.0140 0.9930 -0.1171
vn -0.0004 1.0000 -0.0017
vn -0.9998 -0.0195 0.0039
vn 0.0241 0.2609 -0.9651
vn 0.9840 0.1761 -0.0274
vn 0.9999 0.0124 0.0029
vn 0.9989 -0.0053 -0.0465
vn -0.9978 0.0195 -0.0636
vn -0.0015 0.0714 -0.9974
vn -0.0026 -0.0936 -0.9956
vn -0.9979 0.0070 -0.0642
vn 0.0032 1.0000 -0.0012
vn 0.9991 -0.0184 -0.0381
vn -0.9978 -0.0054 -0.0658
vn 0.0028 -0.0152 0.9999
vn 0.0046 -0.0083 1.0000
vn -0.9990 -0.0453 -0.0048
vn 0.0077 -0.9999 -0.0086
vn -0.0004 1.0000 0.0008
vn 0.9999 -0.0157 -0.0022
vn -0.0090 0.9999 0.0053
vn -0.0004 1.0000 0.0058
vn 0.0134 0.9928 0.1189
vn 0.0134 0.9922 0.1237
vn 0.0507 0.9911 0.1229
vn 0.0139 0.9922 0.1236
vn -0.0004 1.0000 0.0017
vn -0.9996 -0.0264 -0.0015
vn 0.0151 0.2711 0.9624
vn 0.9840 0.1761 0.0274
vn 0.9989 0.0077 0.0466
vn 0.9988 -0.0063 0.0487
vn -0.9978 0.0195 0.0636
vn -0.0015 0.0714 0.9974
vn -0.0013 -0.0934 0.9956
vn -0.9978 0.0078 0.0659
vn 0.0030 1.0000 0.0010
vn 0.9991 -0.0184 0.0381
vn -0.9987 -0.0086 0.0506
vt 0.745719 0.376752
vt 0.862686 0.431203
vt 0.319658 0.609801
vt 0.935889 0.430568
vt 0.018855 0.963679
vt 0.800691 0.376622
vt 0.684153 0.406843
vt 0.860453 0.737379
vt 0.565635 0.608703
vt 0.285091 0.964400
vt 0.935889 0.734530
vt 0.746895 0.407805
vt 0.878483 0.292186
vt 0.744618 0.215272
vt 0.318130 0.782757
vt 0.811128 0.290531
vt 0.019291 0.775639
vt 0.802625 0.215620
vt 0.878483 0.024729
vt 0.684013 0.586765
vt 0.564805 0.782757
vt 0.814201 0.027146
vt 0.745353 0.586765
vt 0.284189 0.775639
vt 0.878483 0.123858
vt 0.473378 0.782757
vt 0.656175 0.578511
vt 0.861286 0.623643
vt 0.474262 0.609090
vt 0.878483 0.044909
vt 0.546193 0.782757
vt 0.717227 0.208821
vt 0.860628 0.713487
vt 0.546440 0.608784
vt 0.673660 0.788987
vt 0.657087 0.755334
vt 0.474175 0.624875
vt 0.717503 0.048808
vt 0.546419 0.623714
vt 0.673660 0.878918
vt 0.765716 0.611458
vt 0.581331 0.578511
vt 0.648815 0.208821
vt 0.843189 0.611458
vt 0.766637 0.432014
vt 0.611500 0.803642
vt 0.601408 0.739966
vt 0.843401 0.430568
vt 0.666316 0.062613
vt 0.609665 0.880401
vt 0.822933 0.611458
vt 0.485806 0.063093
vt 0.787754 0.611458
vt 0.162523 0.064577
vt 0.445627 0.058457
vt 0.822480 0.559350
vt 0.965143 0.283820
vt 0.992493 0.283820
vt 0.787501 0.559198
vt 0.202471 0.059591
vt 0.487945 0.301530
vt 0.162523 0.302678
vt 0.967384 0.034895
vt 0.465315 0.302890
vt 0.915556 0.805587
vt 0.985718 0.034747
vt 0.892105 0.805587
vt 0.185028 0.302633
vt 0.488349 0.346586
vt 0.162523 0.346737
vt 0.946511 0.938253
vt 0.988721 0.812841
vt 0.466701 0.346682
vt 0.965270 0.812761
vt 0.923061 0.938253
vt 0.184042 0.346078
vt 0.362788 0.299571
vt 0.940368 0.397998
vt 0.919251 0.938662
vt 0.971262 0.398011
vt 0.888357 0.938662
vt 0.286757 0.298290
vt 0.364614 0.357265
vt 0.940368 0.323066
vt 0.950146 0.805587
vt 0.285458 0.355526
vt 0.971262 0.323079
vt 0.919251 0.805587
vt 0.921912 0.362326
vt 0.489254 0.447549
vt 0.892404 0.362298
vt 0.162523 0.446289
vt 0.458108 0.447782
vt 0.989706 0.943343
vt 0.919901 0.321886
vt 0.963793 0.943343
vt 0.893988 0.321836
vt 0.193453 0.446294
vt 0.747658 0.053816
vt 0.888174 0.293905
vt 0.319658 0.955714
vt 0.953697 0.294475
vt 0.018855 0.587598
vt 0.802625 0.054607
vt 0.886180 0.019721
vt 0.684153 0.766686
vt 0.565635 0.956811
vt 0.953697 0.022275
vt 0.746895 0.765725
vt 0.285091 0.586878
vt 0.886924 0.121572
vt 0.474262 0.956425
vt 0.886336 0.041116
vt 0.546440 0.956730
vt 0.657087 0.401688
vt 0.474175 0.940639
vt 0.876409 0.409544
vt 0.546419 0.941801
vt 0.717503 0.368833
vt 0.876409 0.319613
vt 0.766637 0.790902
vt 0.814125 0.394905
vt 0.601408 0.417055
vt 0.812292 0.318145
vt 0.843401 0.792348
vt 0.666316 0.355028
vt 0.525895 0.057737
vt 0.822480 0.663566
vt 0.986373 0.749203
vt 0.122575 0.059591
vt 0.951391 0.749203
vt 0.787501 0.663718
vt 0.795765 0.814051
vt 0.983522 0.430757
vt 0.510595 0.302483
vt 0.140018 0.302633
vt 0.960072 0.430568
vt 0.819215 0.814051
vt 0.706496 0.805050
vt 0.845200 0.946716
vt 0.509995 0.346294
vt 0.729946 0.804969
vt 0.868651 0.946716
vt 0.141004 0.346078
vt 0.613046 0.297326
vt 0.731410 0.804984
vt 0.792069 0.947125
vt 0.762304 0.804969
vt 0.822963 0.947125
vt 0.038289 0.298290
vt 0.612255 0.355043
vt 0.731410 0.879900
vt 0.841566 0.814051
vt 0.762304 0.879886
vt 0.039588 0.355526
vt 0.872460 0.814051
vt 0.705497 0.935392
vt 0.919823 0.402762
vt 0.520400 0.447223
vt 0.893910 0.402762
vt 0.731410 0.935392
vt 0.131593 0.446294
s 0
usemtl Material
f 12/33/1 10/28/1 2/4/1
f 11/30/2 9/25/2 6/16/2
f 4/12/3 7/20/3 3/7/3
f 2/5/4 8/24/4 4/10/4
f 7/21/5 14/39/5 12/34/5
f 5/14/6 2/6/6 1/1/6
f 5/15/7 10/29/7 13/37/7
f 22/59/8 17/45/8 18/48/8
f 10/29/9 14/39/9 13/37/9
f 11/32/10 18/49/10 14/38/10
f 14/40/11 17/46/11 13/35/11
f 17/47/12 9/27/12 13/36/12
f 20/54/13 26/68/13 24/62/13
f 24/62/14 30/76/14 28/70/14
f 19/52/15 25/64/15 21/55/15
f 21/57/16 26/66/16 22/58/16
f 30/74/17 37/94/17 38/96/17
f 25/64/18 27/69/18 29/73/18
f 29/73/19 31/77/19 25/64/19
f 31/78/20 34/87/20 32/80/20
f 26/67/21 31/79/21 32/81/21
f 30/76/22 32/82/22 34/86/22
f 30/75/23 33/85/23 29/71/23
f 36/91/24 37/95/24 35/89/24
f 30/76/25 36/92/25 28/70/25
f 29/73/26 35/90/26 37/93/26
f 40/102/27 43/111/27 44/113/27
f 42/109/28 7/20/28 8/23/28
f 40/103/29 8/24/29 6/17/29
f 44/114/30 46/118/30 7/21/30
f 40/104/31 5/14/31 39/99/31
f 45/116/32 39/101/32 5/15/32
f 48/125/33 47/121/33 49/128/33
f 46/118/34 43/112/34 45/116/34
f 11/32/35 48/126/35 16/43/35
f 46/120/36 47/122/36 48/124/36
f 9/27/37 47/123/37 45/115/37
f 20/54/38 52/136/38 50/130/38
f 24/62/39 54/144/39 52/136/39
f 51/135/40 19/52/40 49/127/40
f 52/137/41 49/129/41 50/131/41
f 54/142/42 59/157/42 53/139/42
f 51/135/43 27/69/43 23/61/43
f 55/145/44 53/141/44 51/135/44
f 58/154/45 55/146/45 56/148/45
f 52/138/46 55/147/46 51/133/46
f 54/144/47 56/150/47 52/136/47
f 57/153/48 54/143/48 53/140/48
f 36/91/49 59/158/49 60/160/49
f 36/92/50 54/144/50 28/70/50
f 53/141/51 35/90/51 27/69/51
f 2/4/52 4/11/52 3/8/52
f 2/4/1 3/8/1 12/33/1
f 10/28/53 1/2/53 2/4/53
f 6/16/2 8/22/2 7/19/2
f 6/16/2 7/19/2 11/30/2
f 9/25/2 5/13/2 6/16/2
f 4/12/54 8/23/54 7/20/54
f 2/5/55 6/17/55 8/24/55
f 12/34/56 3/9/56 7/21/56
f 7/21/5 11/31/5 14/39/5
f 5/14/57 6/18/57 2/6/57
f 13/37/58 9/26/58 5/15/58
f 5/15/59 1/3/59 10/29/59
f 18/48/60 16/44/60 19/51/60
f 18/48/61 19/51/61 21/56/61
f 20/53/62 15/41/62 17/45/62
f 18/48/63 21/56/63 22/59/63
f 22/59/62 20/53/62 17/45/62
f 10/29/64 12/34/64 14/39/64
f 11/32/65 16/43/65 18/49/65
f 14/40/66 18/50/66 17/46/66
f 17/47/67 15/42/67 9/27/67
f 20/54/68 22/60/68 26/68/68
f 24/62/69 26/68/69 30/76/69
f 19/52/70 23/61/70 25/64/70
f 21/57/71 25/63/71 26/66/71
f 30/74/72 29/72/72 37/94/72
f 25/64/73 23/61/73 27/69/73
f 29/73/19 33/83/19 31/77/19
f 31/78/20 33/84/20 34/87/20
f 26/67/21 25/65/21 31/79/21
f 30/76/22 26/68/22 32/82/22
f 30/75/23 34/88/23 33/85/23
f 36/91/74 38/97/74 37/95/74
f 30/76/75 38/98/75 36/92/75
f 29/73/76 27/69/76 35/90/76
f 41/105/77 42/108/77 40/102/77
f 40/102/78 39/100/78 43/111/78
f 44/113/27 41/105/27 40/102/27
f 42/109/79 41/106/79 7/20/79
f 40/103/80 42/110/80 8/24/80
f 7/21/81 41/107/81 44/114/81
f 46/118/30 11/31/30 7/21/30
f 40/104/82 6/18/82 5/14/82
f 5/15/83 9/26/83 45/116/83
f 45/116/84 43/112/84 39/101/84
f 19/51/85 16/44/85 48/125/85
f 47/121/86 15/41/86 20/53/86
f 47/121/86 20/53/86 50/132/86
f 49/128/87 19/51/87 48/125/87
f 47/121/88 50/132/88 49/128/88
f 46/118/89 44/114/89 43/112/89
f 11/32/90 46/119/90 48/126/90
f 46/120/91 45/117/91 47/122/91
f 9/27/92 15/42/92 47/123/92
f 20/54/93 24/62/93 52/136/93
f 24/62/94 28/70/94 54/144/94
f 51/135/95 23/61/95 19/52/95
f 52/137/96 51/134/96 49/129/96
f 54/142/97 60/161/97 59/157/97
f 51/135/98 53/141/98 27/69/98
f 55/145/44 57/151/44 53/141/44
f 58/154/45 57/152/45 55/146/45
f 52/138/46 56/149/46 55/147/46
f 54/144/47 58/155/47 56/150/47
f 57/153/48 58/156/48 54/143/48
f 36/91/99 35/89/99 59/158/99
f 36/92/100 60/162/100 54/144/100
f 53/141/101 59/159/101 35/90/101
